<svg xmlns="http://www.w3.org/2000/svg" viewBox="0 0 111.4 111.4"><circle cx="55.7" cy="55.7" r="55.7" transform="matrix(0.02, -1, 1, 0.02, -1.2, 110.18)" fill="#e35b5d"/><path d="M60.15,39.91a6,6,0,1,1-6-6A6,6,0,0,1,60.15,39.91Z" fill="#fff"/><path d="M51.32,68.55c-.78,2.51-3.18,4-5.36,3.33l-4.16-1.3c-2.17-.68-3.3-3.27-2.52-5.78l4.8-15.43c.79-2.52,3.19-4,5.36-3.33l4.16,1.3c2.18.67,3.31,3.26,2.53,5.78Z" fill="#fff"/><path d="M67.75,51.06q-3.19,2.09-6.38,4.18l-5.85-6.7c-2.11-2.42-5.61,1.11-3.51,3.51l7.15,8.2a2.48,2.48,0,0,0,3,.39l8.08-5.29C72.92,53.61,70.44,49.3,67.75,51.06Z" fill="#fff"/><path d="M48.07,45.88l-10.88.17a2.49,2.49,0,0,0-2.4,1.83c-.44,3-.89,6-1.33,9A2.53,2.53,0,0,0,35.19,60a2.49,2.49,0,0,0,3.06-1.73q.53-3.61,1.07-7.23l8.75-.14C51.27,50.79,51.28,45.82,48.07,45.88Z" fill="#fff"/><path d="M43.19,69.85l4.5,4.7,3,3.13c.34.36.68.72,1,1.07.47.5.42.84,0-.08Q54.52,85,57.3,91.24c.65,1.48,2.79,1.82,4.07,1.07a3,3,0,0,0,1.07-4.08q-2.77-6.28-5.56-12.57a8.16,8.16,0,0,0-1.58-1.79l-3.12-3.25c-1.59-1.66-3.18-3.33-4.78-5-2.66-2.78-6.87,1.44-4.21,4.22Z" fill="#fff"/><path d="M42.41,63l-4.18,5q-1.4,1.65-2.78,3.32l-1,1.14c-.39.47-.84.64.15.07l-11.89,6.9c-3.32,1.93-.32,7.09,3,5.15l11.88-6.9A7.1,7.1,0,0,0,39.3,76l2.89-3.46,4.43-5.29c2.45-2.93-1.74-7.17-4.21-4.22Z" fill="#fff"/><path d="M78.05,18.53H41.94a2,2,0,0,0-2,2V38.13c0,2.54,4,2.54,4,0V22.48H76.08V92.69a2,2,0,0,0,4,0V20.51A2,2,0,0,0,78.05,18.53Z" fill="#fff"/><path d="M40.37,80.61V92.69a2,2,0,0,0,3.94,0V80.61c0-2.54-3.94-2.54-3.94,0Z" fill="#fff"/></svg>