<svg id="HeroicPlane" xmlns="http://www.w3.org/2000/svg" viewBox="0 0 215.37 300"><path d="M214.32,233.82q-9.62,0-75.39-11.62a14.94,14.94,0,0,0-1.21,6,8.82,8.82,0,0,0,.4,2.81l24.07,26.47q17.64,19.67,18.45,26.47c0,2.4-.55,7.75-1.61,16l-19.25-7.21a100.28,100.28,0,0,1-18.45-9.64,69,69,0,0,0-2-8.42c-.54-2.94-2-4.54-4.4-4.81l-2.81,4.42c-3.76,0-7.63.13-11.64.39-.26-.52-.8-1.54-1.6-3s-1.48-2.75-2-3.81l-5.21-5.22a9.37,9.37,0,0,0-2.81.4,14.91,14.91,0,0,1-3.62-.4c-.25.27-3.07,4.28-8.42,12a61.73,61.73,0,0,0-8,.4c-2.94,0-5.23-1.73-6.82-5.21-1.88,0-3.21,1.85-4,5.55-1.07,4.48-1.87,7-2.42,7.51q-6.83,4.75-37.3,17a104,104,0,0,1-2-16.36q0-3.58,17.64-24.34l23.67-27.13c0-3.72.12-7,.4-10-19,2.67-47,7.5-77.53,13.13-.26-1.88-2.67-20.66,7.34-30,6-5.55,29.27-26.08,69.39-62.16a130.72,130.72,0,0,1,9.21-42.51q4-10,13.24-36.51C99.62,34.83,109.24,0,109.24,0a283.72,283.72,0,0,1,8,65c0,.84,5.81,16.46,13.17,34.21,6,14.48,7.83,36.78,8.9,44,5.07,4.27,57.63,52.64,67.27,62.56C218.32,217.81,215.22,224,214.32,233.82Z"/></svg>