<svg id="EasyPlane" xmlns="http://www.w3.org/2000/svg" viewBox="0 0 299.37 242.44"><path d="M299.37,112.55l-3.28,2.94q-15.69,1.32-45.47,5.57Q224.11,125,220.19,125H172.42q-8.83,23.88-8.84,73v4.91q28.14,7.53,44.5,14.39c2.84,1.09,4.36,4.26,4.59,9.49a27.49,27.49,0,0,1-1.31,5.23L160,231.32l-3.6,7.2a7.21,7.21,0,0,1-6.55,3.92q-4.91,0-10.8-10.79H88a7.61,7.61,0,0,0-.65-2.29,7.53,7.53,0,0,0-.18-1.47,2.29,2.29,0,0,0-.48-1.15q0-8.18,9.5-12.11c.19-.2,5.66-1.74,16.35-4.58q7.19-2,22.24-6.21l-2-59.55c-.88-3.7-2.61-9.92-5.23-18.64q-20.94,0-46.46-.66-11.13-.33-77.88-9.5L0,112.55v-2.94q0-14.39,6.53-15,24.21-2,87.7-7.53l.65-16.68a14.9,14.9,0,0,0-.65-2.94H74.59l21.61-.67c.64-.65,1.63-3.38,2.93-8.17h3.6A28.06,28.06,0,0,0,107,66.42l16,1H108.94A7.52,7.52,0,0,0,107,73c0,2,.75,6.65,2.28,14.06H126c0-2.61.34-6.87,1-12.76q.65-1,3.6-5.24,0-13.08.33-19.3.66-12.1,5.23-28.46Q142,0,149.2,0q16.35-.33,19.3,68.06a21.43,21.43,0,0,1,3.92,6.21c0,5,.11,9,.33,12.11,1.74.21,5.35.44,10.79.65,5.9.22,8.94-2.61,9.17-8.5,0,.43-.12-1.2-.33-4.91,0-1.52-.11-3.61-.32-6.21H177.33l2.95-.34,12.1-.65c1.74-3.48,3.16-6.11,4.25-7.85h3.6a23.53,23.53,0,0,1,2,8.5h22.57l-20.61.34V86.05l88.67,8.51q5.22,0,6.54,7.19Z"/></svg>