<svg id="objects" xmlns="http://www.w3.org/2000/svg" viewBox="0 0 739.48 569.64"><title>skull</title><path d="M377.1,24.35a2,2,0,0,1-.4,3.1C371.29,31,361,34.36,366.34,42.35c4,6.06,11,8.28,17.82,9.75a1.71,1.71,0,0,1,.4,3.11,18.65,18.65,0,0,0-6.13,5.88,16,16,0,0,1,8.1,3.41A20.94,20.94,0,0,1,389,67.06c.29.34,2.33-.64,2.69-.74a26.5,26.5,0,0,1,8.39-1c6.23.34,11.2,1.64,16.17,5.44,2.92,2.23,6,4.75,9.93,4.3,2.73-.31,5.3-.78,8-.22,2.14.44,4.25,2.56,5.8,4a32.88,32.88,0,0,0,5.68,3.76C448,84,450.34,87.1,453.17,86c2.49-1,5-2.34,7.64-2.88,6-1.23,12.74,3.22,18,5.67,2.41,1.12,5.62,2.1,7.6,4,1.67,1.58,2.41,5.23,3,7.32,2.39,7.92,4.59,17.48,3.8,25.83-.22,2.22-.26.68,1.41,2.24a11.69,11.69,0,0,1,2.79,3.78,36.11,36.11,0,0,1,2.75,10.83c1,8.25-.05,16.44.41,24.68.24,4.19,1,9.45,1.6,15,6.14-13.36,13-26.25,15.92-41A80.6,80.6,0,0,0,510,87.48C502.7,73.6,494.76,59.9,485.37,47.3a140.8,140.8,0,0,0-10.94-12.89c-2.62-2.1-5-4.51-7.44-6.85l-2.94-2.14a97.13,97.13,0,0,0-14.13-6.8c-4.08-1.49-8.27-2.91-12.51-4.07-4.39-.67-8.79-1.19-13.16-1.5-9.81-.69-19.78-.24-29.55-1.23-8.57-.86-17.27-1.9-26-2.65-1,1.9-1,4,.92,6.75A61.56,61.56,0,0,0,377.1,24.35Z" fill="#f5efe3"/><path d="M238,165.53c-4.19-3.76-7-8.11-6.62-14,.38-5.64,4-10.82,6.42-15.73,6.43-12.89,10.92-26.52,20.16-37.86,17.22-21.15,48.13-19,67.05-37.83a1,1,0,0,1,1.48.2c5.6,9.37,16.29,7,25.26,4.89,7.3-1.71,15.23-4.52,22.91-4.38a25.85,25.85,0,0,1,5-6.23c-7.57-2-15.33-5.61-18.2-13.33-3.1-8.31,4.82-12.22,11-15.85-3.69-3.69-7.57-7.82-8.53-13a7.65,7.65,0,0,1,.19-3.58c-18.3-1.34-36.63-1.09-54.16,5-22.09,7.67-40.83,22.4-55.13,40.76-14.69,18.86-27.21,42.67-32,66.24a104.3,104.3,0,0,0,.62,43.55c.81,3.61,1.84,7.13,3,10.62.06-.15.11-.29.19-.45C228.86,170.2,233.79,167.65,238,165.53Z" fill="#f5efe3"/><path d="M496.51,252.49c-1.14-1.6-2.23-3.28-3.25-5a10.26,10.26,0,0,1-1.69,2.26,89.84,89.84,0,0,1,14.22,14.16c3.06,3.7,5.91,8.08,6.7,12.91C511.12,266.87,502.07,260.26,496.51,252.49Z" fill="#f5efe3"/><path d="M251.86,255.91c.85-.66,1.85-1.48,2.92-2.23a10.66,10.66,0,0,0-6.37,5.85A14.39,14.39,0,0,1,251.86,255.91Z" fill="#f5efe3"/><path d="M232.12,183.09a18.65,18.65,0,0,1-3.56-2.31c.64,1.78,1.3,3.56,2,5.33A10.9,10.9,0,0,1,232.12,183.09Z" fill="#f5efe3"/><path d="M310.75,431.47a.78.78,0,0,0,.09-.53,15.76,15.76,0,0,0-1.06-4.18,1,1,0,0,0,0-.16,9.67,9.67,0,0,0-2.38-3.2,1.43,1.43,0,0,0-.15-.11,9.46,9.46,0,0,0-.94-1,20.11,20.11,0,0,0-6-3.52c-3.59,4.28-5,9.39-5.37,14.85,1.87,4.86,4,9.66,5.42,14.58l.09.1c.3-.33.6-.67.89-1a1.62,1.62,0,0,1,2.3-.34,8.25,8.25,0,0,1,2.23,3c.19.42.66.32.88,0h.13c0-.1,0-.2,0-.3a.48.48,0,0,0,0-.12,4.86,4.86,0,0,1,0-.76c.05-.62.13-1.23.22-1.83-.13-5.28.94-11.13,3.73-15.41A.24.24,0,0,1,310.75,431.47Z" fill="#f5efe3"/><path d="M289.17,429.29a5.82,5.82,0,0,1-3.12.6c-4.11,4.37-10.3,7.7-15.29,10.27-6.4,3.3-13.76,7-21.06,7.62-9.28.82-19.22-3-26.75,4-5,4.66-9.78,8.94-16.15,11.63-12.55,5.28-25,10.92-38.06,14.87-9.22,2.79-20.09,5.81-29.81,3.61-7.07,3.5-16.93-.09-23.55-2.86-8-3.36-16.61-7.3-25.52-6.09-1.48,1.54-3.44,2.68-5,4.2a30.52,30.52,0,0,0-6.25,8.17c-1.23,2.52-2.38,5.8-1.24,8.58s3.76,4.25,6.22,5.75h0a2.06,2.06,0,0,0,1.88.11h0c3.67-2.06,12,0,15,.05a27.77,27.77,0,0,0,12-2c3-1.23,6.4-2.73,8.73-5.06,1.26-1.27,2-2.85,3.28-4.11a.29.29,0,0,1,.47.13c2.14,7.1-13.65,14.56-18.84,15.34-3.84.58-7.74.77-11.61,1-1.74.12-3.49.23-5.22.37-.4,0-2.48,0-2.25-.16a3.23,3.23,0,0,1-.93,0c-1,2.61-2.45,5-3.1,7.74a22.77,22.77,0,0,0-.21,5.72c0,3.11.65,6.87-.08,10a1.85,1.85,0,0,1-.07.41c7.23,5,16.45,3.56,24.74,5.68,5,1.27,9.58,3.38,14.43,5,2.87.93,6,.92,8.23,2.81,4.39-3.49,9.91-6.08,14.52-9.87a.16.16,0,0,1,.23.23c-6.54,7.12-16.33,12.06-16.86,22.78-.27,5.56,3.82,7.85,9,7.7a26.44,26.44,0,0,0,16.52-6.63,16,16,0,0,0,4.92-7.24c.68-2.49,0-5,.38-7.46a.34.34,0,0,1,0-.18,9.69,9.69,0,0,1,.06-1.06v-.06a5.06,5.06,0,0,1,1.54-3.49,4.25,4.25,0,0,1,.6-.49c6.54-4.39,11.79-10.43,16.6-17.05v0a61.16,61.16,0,0,1,5.5-8c10.53-15.92,20.36-32.72,39.55-37.38a.45.45,0,0,1,.23.86c-13.11,5.45-21.94,15.28-29.55,26.36a81.21,81.21,0,0,1,9.86-6.83,358.81,358.81,0,0,1,40.67-20.58c17.48-7.53,39.64-9.69,53.88-23-2.55-2.75-4.2-6.72-5.32-10.77A110,110,0,0,1,289.17,429.29Z" fill="#f5efe3"/><path d="M294.84,377c-.07-3.48-.6-7.76-3.19-10.38-2.39-2.4-5.43-3-8.57-3.37-6.26,1.1-12.1,3.29-18.21,5.79-6.86,2.82-13.79,5.55-21.3,5.15a5.89,5.89,0,0,1-1.21-.94,19.63,19.63,0,0,1-1.9-2.38s0-.06,0-.09c-7.26-12-19.15-19.76-27.37-30.94q-.5-.69-1-1.38c-12.93-5.65-26-11.06-39-16.44C161.66,317.33,150,311.2,138,307.9c-9.29-2.56-20.35-3.79-28.29-9.71-7.46-5.56-9.62-15.35-14.76-22.84a4.3,4.3,0,0,0-.43-.62,1,1,0,0,0-.21-.16l-.09-.13,0-.05-.22-.3a6.47,6.47,0,0,0,2.63-4.93,7.48,7.48,0,0,0-1.2-5.14,13.35,13.35,0,0,0-3.69-3.76c-1.28-.83-2.47-.92-3.57-2a2.19,2.19,0,0,1-.46-2.17c-5.59-14.71-28.83-10.2-40.69-7-7.83,2.1-16.48,5-22.81,10.25-1.94,1.62-4.26,3.66-4.87,6.26-.54,2.3,1,4.45,1.72,6.55a2,2,0,0,1,.07.23,11.25,11.25,0,0,0,6.33-4.67c.13-.2.47-.08.39.16-1.1,3.06-2.15,6.14-5.1,7.94s-6.61,2.49-9.22,4.89c-3.2,2.94-7.36,6.56-8.1,11.11-.56,3.39,1,6.52,2.8,9.31,4.1,6.5,8.2,12.17,10.78,19.46,1.09,3.11,2.15,6.42,4.14,9.09s4.66,3.5,7.56,4.62a22.21,22.21,0,0,0,7.67-7.45c2.19-3.55,4.13-7.26,6.62-10.61,4.39-5.91,12.66-10.38,19.63-5.67,4.8,3.25,8.93,7.73,14.32,10,3.09,1.31,6.64.77,9.88,1.46a90.69,90.69,0,0,1,9.72,2.53c7.06,2.34,13.86,5.46,20.9,7.91,6.67,2.31,13.38,3.64,20.23,5.2a.14.14,0,0,1,0,.27c-13,2.37-26.5-6.07-38.75-9.2-4.16-1.06-8.35-2.35-12.65-2.67-2.83-.22-5.66.1-8.5-.13-4.61-.39-8.74-3.38-12.25-6.12-3.82-3-8.3-7.5-13.43-4.35a14.23,14.23,0,0,0-2.94,2.46c18,5,35.44,12.5,53.09,18.61,14,4.87,28.12,9.65,42.42,13.78,22.34,6.45,48.41,13.25,62.94,32.88,3.7,3.43,8.05,2.87,13.41,2.36a85.61,85.61,0,0,1,21.15.72,126.79,126.79,0,0,1,42.17,14.7c.24-.32.48-.61.69-.88a17.35,17.35,0,0,1,1.79-2.12C292.31,391.49,295,384.45,294.84,377ZM85.75,274.82c-5.78,3.41-11.89,4.32-17.5.09-5.34-4-8.19-9.36-15.55-9.42l-.32,0c-3.09,3.35-7,5.73-10.79,8.32-3.32,2.31-7.28,5-8.16,9.24-1.07,5.2.13,10.48,1,15.62,1.06,6,3,10.67,10.19,9a.14.14,0,0,1,.07.27c-4.91,2-9.17,2.18-11.68-3.19a58.88,58.88,0,0,1-3.81-11.24l-.15-.1a13.07,13.07,0,0,0-3.74-2.46c-2.8,3.43-5,7.93-3.65,12.43,1,3.29,3.12,5.63,5.1,8.36.07.11-.07.2-.16.16a13.34,13.34,0,0,1-7.11-16.93c.85-2.23,2.34-7.88,5.16-8.06a9.47,9.47,0,0,1,3.5.4c0-.19-.05-.39-.07-.58a16.25,16.25,0,0,1,6-13.9,137.82,137.82,0,0,1,16.37-12,2.18,2.18,0,0,1,.38-.18A2.43,2.43,0,0,1,52.7,260c6,.36,10.29,4.44,14.22,8.66,5.49,5.89,10.67,7.81,18.76,6C85.78,274.63,85.85,274.77,85.75,274.82Z" fill="#f5efe3"/><path d="M254.15,257.05a19.8,19.8,0,0,0-5.94,5.66.61.61,0,0,1-1.05-.07l0,.08c-1.31,3.91-2.38,7.87-3.92,11.68a23.25,23.25,0,0,0-2.68,10.35h0a71.6,71.6,0,0,0,3.93,26.76c1.11,3.28,2.65,8.72,5,13.34-.29-1.15-.58-2.3-.88-3.45a76.34,76.34,0,0,1-2-7.69c-1.9-7.63-3.46-15.3-3.54-23.11-.13-14.16,7.35-25.73,18.65-33.27a29.18,29.18,0,0,1-3.8-2.31C256.64,255.74,255.25,256.32,254.15,257.05Z" fill="#f5efe3"/><path d="M438.38,443.25a1,1,0,0,0,.3-.25,15.9,15.9,0,0,0,2.89-11.7l0,0a22.39,22.39,0,0,0-1-4.93c-.91-2.38-2-4.67-3.05-7a13.82,13.82,0,0,0-4.63,3.12,18.06,18.06,0,0,0-2.8,4.75c4.09,4.83,5.22,12.92,4,19.62A9.88,9.88,0,0,0,438.38,443.25Z" fill="#f5efe3"/><path d="M720.83,283.33a23.28,23.28,0,0,1-8.13.74,2.33,2.33,0,0,1-2.24-1.71c-.74-4.38-3.63-7.29-5.69-11.07a1.09,1.09,0,0,1,1.7-1.31c1.83,1.69,4,2.92,5.63,4.83a12.61,12.61,0,0,1,2.38,4.54,21.47,21.47,0,0,0,3.93-.52c-2.12-2.59-2.9-6.23-3.38-9.52-.4-2.77-1-5.49-1.64-8.22a13.4,13.4,0,0,1-.61-2.13q-.3-1-.63-2.07a2.8,2.8,0,0,1-.3-.48c-3.31-6.46-11.33-7-17.81-6.86-4.31.07-8.6.47-12.9.72l-.16,0c-2.61.53-5.21,1.46-7.86,1.12a2.3,2.3,0,0,1-1.74-.41c-9.35-6.21-15.23,2.09-19.12,9.93a6.6,6.6,0,0,1,1.55,3.8,2.14,2.14,0,0,1-2.67,2c-2.92-.52-5.47-5.31-7.51-1.23a19.45,19.45,0,0,0-1.87,9.82c0,.19,0,.35.06.49.23.19.47.37.72.55a16.54,16.54,0,0,1,3.15,3,8.58,8.58,0,0,1,1.06,1.72c.93,2.91,1.61,6.09.82,8.92a2.08,2.08,0,0,1-.38.25c-5,2.77-10.09,5.35-15.26,7.8-4.65,2.2-9.51,5-14.43,6.55-10.48,3.25-21.44,2.32-32,4.95-11.18,2.79-21.34,7.89-31.4,13.38-7.88,4.28-15.76,8.83-24.4,11.3-6.23,13.78-16,26.11-28.45,34.28l-1.45,1.06a45.9,45.9,0,0,1-7.47,4.69,10.85,10.85,0,0,1-4.77,2.12,8.5,8.5,0,0,1-5.65-1.51c-1.87-1.1-4.06-1.72-5.88-2.88a63.84,63.84,0,0,1-6.31-2.09,122.44,122.44,0,0,0-16.31-2.79c-8.7,8-11.56,22.21-4.45,32A115.07,115.07,0,0,1,485.78,385c11.45-2.13,26.17-4,37.48.19.28-.1.55-.22.81-.34a11.41,11.41,0,0,0,3.51-3.7,15,15,0,0,0,.82-3,2.32,2.32,0,0,1,1.67-1.67,34.57,34.57,0,0,0,13.61-5.26c1.88-1.26,4.73-3.14,5.39-5.51l.12-.45c-6.74,1.85-13.53,3.5-20.42,4.75a.23.23,0,0,1-.13-.45c25.07-8.95,49.57-19.44,75.35-26.31,15.62-4.17,31.1-7.62,46-13.23a78.91,78.91,0,0,0-9,.41,170,170,0,0,0-22.25,4.29c-14.13,3.68-27.83,8.8-42,12.27-.22.05-.39-.29-.16-.39a284.8,284.8,0,0,1,39.53-14.83,215.5,215.5,0,0,1,22.47-5.27c6.35-1.11,12.64-.94,19-1.62,7.07-.76,11.25-4.89,17.46-7.76a11.76,11.76,0,0,1,10.56.33c4,2.1,7.13,5.35,10.65,8.13,4.08,3.21,6.53,3.12,11.4,2.48a2.14,2.14,0,0,1,2,.82c5.59-1,10.56-6.85,14-10.84a56.16,56.16,0,0,0,7.43-11c.8-1.57,2.4-4.56,2.25-6.75-2.19-3.34-3.69-7.07-5.84-10.44C725.74,287,723.18,285.38,720.83,283.33ZM709.7,315.47c-.83.1-1-1.21-.19-1.43,10.6-3,6.12-17.66-2.29-20.54-.72,7.46-4.13,15-12.52,14.43-.19,0-.27-.33-.05-.37,7.73-1.24,9.62-8.29,9.78-15.07h0c-2.91-4.75-2.2-11.32-6.42-15.42-2.82-2.73-6.55-3.08-10.31-3-7.9.15-15.07,4.78-23,5.41a.73.73,0,0,1-.19-1.43c5-1,9.68-2.84,14.45-4.48,4.21-1.45,8.9-3.7,13.43-3.64,8.63.1,15.25,9.65,15.28,18.13a3,3,0,0,1,1.43.31C719,292.94,724.05,313.79,709.7,315.47Z" fill="#f5efe3"/><path d="M446.73,434.76a2.65,2.65,0,0,1-1.11.7c-1.35,6.22-3.41,12.82-9.89,14.56a10.31,10.31,0,0,1-.27,2c7.62,2.92,15.13,5.94,23.12,7.89,9.22,2.25,18.57,3.44,27.94,4.91a151.77,151.77,0,0,1,30.87,8.51c4.71,1.81,9.37,3.73,14,5.69,3.27,1.38,6.94,2.5,10,4.41A25,25,0,0,1,546.6,486c5.12,2.44,9.86,6.42,13.67,10.21h0c.22.15.46.28.68.42,1.86,1.21,3.84,2.51,5.76,3.93,3.76,3.61,7.24,7.75,8.08,12.73a1.33,1.33,0,0,1-.11-.24c-2.52-7.14-10.94-12.22-17.13-15.81a90.35,90.35,0,0,0-11.64-5.83c4,5.82,6.76,12.47,9.69,19a112.56,112.56,0,0,0,7,13.76,27.78,27.78,0,0,0,2.17,3c.39.63.8,1.25,1.24,1.86a19.65,19.65,0,0,0,5.36,4.83,17.6,17.6,0,0,0,3.2,2.25,3.28,3.28,0,0,1,.12.72c.51,7.36-2.1,17,5.36,21.6,7.73,4.71,16.25,4.07,24.8,5.2,1.87-5.49,1.68-11.37,1.7-17.14a81,81,0,0,0-16.94-14.52.16.16,0,0,1,.13-.29c7.22,2.16,12.82,6.46,18.49,11.13a2.43,2.43,0,0,1,1,0,22.82,22.82,0,0,1,2-2.38,49.14,49.14,0,0,1,17-9.62,95.24,95.24,0,0,1,21.6-4.86c-1-3.27-1.24-6.82-2.43-10-1.93-5.22-4.94-9.76-10-12.44-5.28-2.82-10.86-3.83-16.73-4.49a34,34,0,0,1-15.65-6.17c-1.23-.85-.1-2.85,1.19-2a33.27,33.27,0,0,0,21.55,5.35c5.92-.5,12.25.63,17,4.3.19.15.37.32.55.47,6.17-10,3.17-23.07-9.44-26.47-7-1.89-13.3-.51-20.07,1.49-4.06,1.19-8.5,2.1-12.66,1.41a3.92,3.92,0,0,1-1.55.24c-26.8-1.22-53.36-10.86-77.14-22.85-5.69-2.87-11.21-6.95-17.45-8.49-5.7-1.41-11.53-1.35-17.31-2.13-14.06-1.89-27.3-7.86-40.51-12.82A16.36,16.36,0,0,1,446.73,434.76Z" fill="#f5efe3"/><path d="M358.17,441.5l.05,0a13.33,13.33,0,0,1,3.81,1.63,22.22,22.22,0,0,1,6.74,9.19,16,16,0,0,1,5.67-8.83c2.29-1.85,5.85-3.54,9.06-3.39a5.1,5.1,0,0,1,3.66,1,1.09,1.09,0,0,1,.56.18c2.43,1.61,4.13,4.63,5.39,7.62,1.34-5.95,5.33-12.36,10.9-14.7a1.2,1.2,0,0,1,.7-.26l.34-.12a13.28,13.28,0,0,1,4.07.12,7,7,0,0,1,3,1.6l.13.17a39,39,0,0,1,2.32,3.44,14.89,14.89,0,0,1,3.84-8.47c1.35-1.5,4-4,6.5-4.52a7.66,7.66,0,0,1,1.9-.47c.32-.07.64-.12,1-.16a14.07,14.07,0,0,1,1.57-.21,13,13,0,0,1,2.33-4.07c1.5-1.78,3.24-3.78,5.42-4.73v0a.52.52,0,0,0,.2-.09,1.79,1.79,0,0,0,.84-1.64,1,1,0,0,0,0-.25c.74-5.17,3.48-11.22,8.31-12.67a26.62,26.62,0,0,1-5.17-19c.64-5.68,2.66-12.25,7.15-16.12-1.68-.13-3.34-.25-5-.33l-1-.05c-3.58,1.75-6.39,2.68-8.47,6.61a33.35,33.35,0,0,0-3.63,13.41c-.49,7.77.52,16.75,6.15,22.68a.1.1,0,0,1-.1.16c-8.29-2.55-8.62-16.94-7.89-23.85.54-5.1,1.68-10.6,4.69-14.88a23.3,23.3,0,0,1,3.73-4.27c-5.72,0-11.71.71-16.41,3.44-6.9,4-9.22,10.72-10.26,18.27-.07.51-.89.47-1,0-3.95-18.08,15.59-26.09,30.36-27.26,2.65-.21,5.38-.29,8.14-.25a59.47,59.47,0,0,0-7.38-2.27c-5.73-1.33-12.37-2.18-18.11-.35-6.75,2.15-12,6.71-16.28,12.23-.24.3-.7-.09-.52-.4,6.81-12.07,18.36-17.9,32.16-15.6a105.28,105.28,0,0,1,24.32,7.56,101.77,101.77,0,0,1,23.88,6.54,29.71,29.71,0,0,1,4.29-1.38c22.57-10.14,38.54-37.08,40.22-61.19,1-15-4.2-27.19-10.5-40.53-2.46-5.19-4.87-10.34-6.87-15.57a58,58,0,0,1-3.63-10.3A72.55,72.55,0,0,1,507.4,230a31.39,31.39,0,0,1-.23-3.61c-1.43-9.92-.37-20,1.91-29.81,1.47-6.33,3.32-12.67,4.76-19.08a110.19,110.19,0,0,1-11.05,17c-.29,9.09-2.76,17.35-11,21.18a2.58,2.58,0,0,1-1,.23,67,67,0,0,0,5,22.64c.05.14-.14.22-.23.13-6.08-5.7-7.83-16.65-7.95-24.59a1.77,1.77,0,0,1,.06-.42.34.34,0,0,1,0-.1.37.37,0,0,1,0-.52,5.55,5.55,0,0,1,1.46-.95,2.72,2.72,0,0,1,.37-.27c4.4-2.46,6.78-6.48,8-11.23a16.16,16.16,0,0,0,.87-5.6c0-.22,0-.44,0-.67a.56.56,0,0,0,0-.08c0-.17,0-.33,0-.5a22.74,22.74,0,0,0,.13-2.85.42.42,0,0,1,0-.1c0-8-1.51-16.41-1.71-22.44-.21-6.23.64-12.45.61-18.69,0-6.65,0-16.75-6.42-20.8a1.31,1.31,0,0,1-.59-1.46c1.75-5.15.51-11.6-.42-16.78-.85-4.81-1.55-11.33-4.62-15.33-2-2.61-8.68-3.79-11.67-4.87-3.28-1.17-7-3.19-10.44-3.7-3.16-.46-7.09,2.9-10.15,3.69-3.37.87-4.57-.65-7.31-2.64-2.3-1.67-4.76-2.34-6.87-4.33-2.59-2.45-4.87-5.34-8.79-5-3.31.32-6.19.81-9.34-.45-2.9-1.17-5.46-3.32-7.83-5.33-7.39-6.28-15.37-5.6-24-2.71a1.3,1.3,0,0,1-1.46-.6,14.74,14.74,0,0,0-10.14-6.79,49.07,49.07,0,0,0-4.39,9.9c-1.22,3.69-4.91,14-.59,16.94a1.54,1.54,0,0,1,.31,2.37c-1.94,2.28-3,5-5,7.07A21.45,21.45,0,0,0,381,106.62a1.18,1.18,0,0,1,.28,2.13c-2.88,1.56-8.61,4-7.37,8.3.62,2.14,1.95,3.92,2.83,6,1.53,3.55,2.55,7.09,1,10.77,0,0-.1,0-.08,0,2.68-7.28-4.45-9.89-6-16.07-1.11-4.52,2.21-7.55,5.84-9.61a28.9,28.9,0,0,1-12.89-8.25,1.52,1.52,0,0,1,0-2.12c2.28-1.84,3.43-4.43,5.05-6.76-4-4.44-1.59-13.39-.08-18.19a62.13,62.13,0,0,1,4.21-10.4c-16.19.16-37.76,16.65-48.34-.11-8.21,7.42-18.24,11.77-28.66,15.27-11.24,3.77-23.42,7.1-32.52,15.09C253.56,102,248,116.22,242.55,129.11c-2.4,5.67-5.66,11-7.83,16.78-3,7.9-.8,13.85,5.65,19.19a.94.94,0,0,1-.19,1.47c-3,1.55-6.33,3.14-8.9,5.43-1.19,1.07-3.24,2.75-3,4.58.33,2.95,3.69,4.25,6,5.31a1,1,0,0,1,.2,1.59,9,9,0,0,0-2.5,6.42c1.33,3.6,2.63,7.21,3.79,10.88.41.83.8,1.66,1.14,2.48l.09.21a7.22,7.22,0,0,1,1.13,2.89c.54,1.78.58,3.58-1.31,4.5a.11.11,0,1,1-.11-.2,1.67,1.67,0,0,0,.16-.12,5.16,5.16,0,0,0-.48-4.39c-.09-.18-.19-.35-.29-.53-1.13-1.56-2.2-3.18-3.22-4.83.21,2.48.3,4.92.31,7.22a98.45,98.45,0,0,1-3.49,25.6C224.71,252,217,269.37,213.56,288.21c-3.1,16.85-5.7,35.41,6.1,49.52,8.73,10.44,19.89,18.46,26.9,30.35a3.33,3.33,0,0,1,.36.89c8.27-1.26,16.06-5.84,23.73-8.81a53,53,0,0,1,25-3.67,38.29,38.29,0,0,1,6.49,1.31,36.15,36.15,0,0,1,14.14,1.35c6.91,2.1,14.14,5.9,18,12.25a.68.68,0,0,1-1.07.82c-5-5.19-10.45-9-17.7-10.21a44.75,44.75,0,0,0-4.51-.51c7.61,4.28,13.81,11,15.82,19.66.48,2.08-2.1,3.8-3.68,2.14-4.91-5.14-7.87-11.83-14-15.81a29.86,29.86,0,0,0-4.54-2.39,54.36,54.36,0,0,1,2.87,6.76c4.64,12.72,2.05,26.86-4.31,38.61-.06.12-.27,0-.22-.09,4.15-10,6.13-23.27,2.71-33.76-1.37-4.21-3.49-8.82-6.51-12.14-.27-.3-.53-.57-.78-.82a20.89,20.89,0,0,1-4.85,1.17,14.09,14.09,0,0,1,4.14,8.27A41.33,41.33,0,0,1,294,395.77a121.2,121.2,0,0,0-.22,29.36c.09.82.19,1.85.32,3a21.5,21.5,0,0,1,5-9.87s.08-.05.11-.09a3.24,3.24,0,0,1,2.62-1.11,15.56,15.56,0,0,1,6.69,3.92,16.71,16.71,0,0,1,2.58,3.28,6,6,0,0,1,.6.73.91.91,0,0,1,.17.17,14.66,14.66,0,0,1,1.15,2,6.92,6.92,0,0,1,5.47,1.65,20.31,20.31,0,0,1,6,7.82,12.39,12.39,0,0,1,11.77-3.7c.25.1.5.21.74.33,1.14.61,1.58,1.69,2.22,2.68l-.06,0a39,39,0,0,1,4.53,13.68C344.67,444.17,352.62,440.05,358.17,441.5Zm57.73-55.76c.07-.58,1-.61.94,0-.41,5.31-1.39,10.9-.68,16.22.93,6.93,5.13,11.35,9.92,16.08a.53.53,0,0,1-.64.83C412.53,411.07,414.31,398.78,415.9,385.74Zm-59.25,34.95c-4.23,4.1-6.94,8.62-7.83,14.51-.09.6-1,.34-.9-.25.74-5.51,3.21-11.94,8.25-14.88A.4.4,0,0,1,356.65,420.69Zm20.87.2c-2.36,3-4.45,5.41-5.4,9.23a70.82,70.82,0,0,0-1.53,9.62c-.1.92-1.55,1.31-1.75.24-1.25-6.79-2.3-13.47-4.25-20.11a.47.47,0,0,1,.85-.36c2.34,4.24,3.26,9.11,4.06,13.94.81-5.42,2.5-11.06,7.19-13.63A.69.69,0,0,1,377.52,420.89ZM394,439.15c-.05.29-.49.2-.5-.07a24.12,24.12,0,0,0-3.21-10.44c-1.3-2.37-3.11-4.76-3.65-7.44-.09-.41.46-.85.78-.45,2.32,2.93,4,6.87,5.54,10.29A14.06,14.06,0,0,1,394,439.15ZM502.5,327.87c-4.06,5.2-8.08,10.35-12.95,14.88a44.62,44.62,0,0,1-6.4,5.19,10,10,0,0,1-5.83,2.52c-3.25.12-6.33,1-9.62,1a.06.06,0,0,1,0-.12,37,37,0,0,0,5.59-1.71c-6.95.82-14-.32-21.2-.88a64.16,64.16,0,0,0-17.6,1.13c-4.1.78-7.69,1.18-11.53-.66a.18.18,0,0,1,.09-.33c5.43.12,10.11-1.39,15.29-2.64a45,45,0,0,1,13.75-.89c10,.68,19.31,1.7,29.35,0h.1c8-4.45,13.54-12,20.72-17.8A.18.18,0,0,1,502.5,327.87Zm14.71-3.46c-.32,7.33-3.94,16.51-10.13,20.73-.08.06-.15-.05-.1-.12,5-6.33,7.25-13.19,9.89-20.66C516.93,324.19,517.22,324.2,517.21,324.41ZM371.91,160.69c2.15,10.27,1.63,20.64,1.29,31.05a.5.5,0,0,1-1,0c-.23-10.31.88-20.69-.71-30.94C371.46,160.54,371.85,160.42,371.91,160.69Zm-44.4,110.58c3.51,7.51,7.9,15.14,16.54,17.21a1.32,1.32,0,0,1-.35,2.58c-10.08-.56-15.29-10.45-17.9-19.07C325.5,271,327.06,270.3,327.51,271.27Zm-59.65-52.79c13.76,6,28,11.17,39.59,21.05,11.31,9.67,17.85,23.15,16.59,38.21a1.34,1.34,0,0,1-2.67,0c-.78-15.16-6.11-27.69-18.16-37.29-10.8-8.6-23.7-14.66-35.66-21.44C267.2,218.81,267.51,218.33,267.86,218.48Zm45.29,199.37c-.13.15-.32,0-.25-.18,2-4.38,5.41-7.8,7.72-12,2.79-5,2.76-9.68,2.46-15.28,0-.72,1-.82,1.23-.16C327.57,401.23,320.08,410.22,313.15,417.85Zm26-15.91a45.21,45.21,0,0,1-3.06,7.6,185.15,185.15,0,0,0-9.27,20.33c-.17.49-1,.46-1-.13.72-6.4,3.95-12.24,6.55-18,3-6.63,4-12.85,5.28-19.83,0-11.33,2.65-24.34,9.73-33.4.28-.36.75.1.59.45-3.31,7.07-4.67,16.09-5.13,24.32.16-.43.32-.8.43-1.06,2.19-4.95,4.75-9.73,7.3-14.49,2.83-5.3,5.74-10.55,8.6-15.84.91-1.68,1.84-3.36,2.74-5,1,.15,2.24,1.51,3.14,2.72,1.1,1.75,2.15,3.55,3.22,5.33,0-.16,0-.33,0-.49,0-3.45,0-6.89,0-10.34,0-6.15,0-12.3.25-18.45-3,0-6,0-8.92.17a5.5,5.5,0,0,1-2.57,1l-.39.46c-1.11,5.55-7.22,9.68-11.27,13.1-5.19,4.38-11.28,8.79-13.5,15.49-.08.23-.49.21-.46-.07.57-6.26,4.12-10.95,8.6-15.14,2.41-2.25,5-4.35,7.35-6.64-2.89,1.46-5.9,2.7-8.63,4a67.6,67.6,0,0,0-11.37,6.49c-1.61,1.21-5.62,6.79-7.72,6.52-20.73-2.73-41.15-7.4-61.95-9.67a28.7,28.7,0,0,1-12.46-3,26.57,26.57,0,0,1-9.14-9.14c-2.81-7.56-.66-15.58-2-23.35a.22.22,0,0,1,.42-.11c2.18,6.87,2,15.43,5.81,21.67,2,3.25,5.37,4.95,9,5.81-3.76-5.26-6-11.6-7.72-17.8-2.66-9.81-4.44-21.25-3-31.89,0-.05,0-.1,0-.15a55.92,55.92,0,0,1-4.71,7.06c-2,2.68-4.3,5-4.87,8.49-.76,4.66.76,8.49,2.53,12.71.26.61-.72,1-1,.44-3.52-6.23-3.29-12.78-.38-19.15,3.06-6.69,8.29-12.13,10.7-19.18,0,0,0,0,0,0,.2-1.27.5-2.52.7-3.78s.39-2.62.71-3.91a25.68,25.68,0,0,1,2.67-9.33c1.67-3.12,4.3-5.66,7.41-6.45-6.48-2.85-11.2-13.91-10.62-20.27a29.9,29.9,0,0,1,.58-14.33,29,29,0,0,0-4.62,10.77,19,19,0,0,0-.66,5.42,24.77,24.77,0,0,0,1.15,6.7.86.86,0,0,1-.26-.3c-6.58-11.7,1.08-20.86,7.83-30.3,4.35-6.08,7.73-12.44,7.63-20.14-.12-9.64-3.49-18.73-6.12-27.88a.42.42,0,0,1,.81-.23c4.52,13.87,10.9,29.31,2.86,43.19-2.06,3.56-4.68,7-7.06,10.43-2.61,9.33-.23,19.57,4.94,27.64a40.48,40.48,0,0,0,7.35,8.61c5.85,1.23,12.14,1,17.8,3.28a33.23,33.23,0,0,1,13.48,9.33c7.29,8.74,12,19.08,17,29.19,4.56,9.19,9.46,19.09,17.27,26,9.38,8.27,19.81,8.14,31.54,6.1h.05a.43.43,0,0,1,.27,0l.18,0h0c1.08.23,2.25.71,3.33.3,6.28-7,8.24-16.52,11.54-25.22l0-.05c1.12,2.74-.19,7.87-.66,9.65-.79,3-1.74,6-2.69,9-.09.19-.17.39-.27.58a31.75,31.75,0,0,1-3.63,6.37c2.4-.38,4.79-.7,7.2-.92,0-.78.06-1.55.1-2.33a.92.92,0,0,1,1.83,0c0,.72.06,1.44.09,2.16,1.43-.1,2.88-.14,4.33-.15a2.17,2.17,0,0,1,2.1-1c-.8-6.07-1.37-12.18-2.32-18.22-1.34-8.59-3-17.14-4.41-25.73a.31.31,0,0,1,.59-.16,201.59,201.59,0,0,1,6.41,27c1.09,6,2.36,12,3.16,18.11l.31.13c2.35.13,4.79.33,7.21.68a46.4,46.4,0,0,1-4.08-6.68,71.48,71.48,0,0,1-6.63-23.17c-.05-.37.56-.44.64-.08a77.55,77.55,0,0,0,8.3,21.9,33.72,33.72,0,0,0,7.14,9c.12.1.26.18.38.27a26.91,26.91,0,0,1,4.46,1.72c8.56-.67,17.47-5.36,24.15-9.76,7.92-5.21,15.36-11.64,23.9-15.83a83.72,83.72,0,0,1,27.32-8c4.93-.56,9.46.34,14.32,1.11a26.39,26.39,0,0,0,14.37-1.52.79.79,0,0,1,.3-.05c5-4.67,7.4-11.93,3.86-18.87-2.27-4.46-5.67-8.09-9.23-11.56-3.18-3.11-7.3-6.19-9.27-10.28-.62-1.3.41-3.09,1.75-3a15.83,15.83,0,0,0,1.26-2.5v0a1.57,1.57,0,0,1,.05-1,16.17,16.17,0,0,0-.64-3c-7.28-15.3-9.44-34.13-.16-48.65a.49.49,0,0,1,.85.49c-6.15,13.08-5.33,27.06-.11,40.31a71,71,0,0,0,8.59,16.37c3.38,4.59,7.5,8.6,10.79,13.25,3.72,5.24,5.62,10.8,5.2,16.44a18.16,18.16,0,0,1-.11,4.17,9.55,9.55,0,0,1-.92,3.05,1.13,1.13,0,0,1-.08.56c-1.19,2.9-3.23,6-3,9.26.16,2.29,1.17,4,2.18,6a31.63,31.63,0,0,1,3.48,11c0,.12-.16.12-.2,0-1.5-4.1-5.19-6.79-7.48-10.4a46.66,46.66,0,0,1-9.69,19.77c-.07.09-.22,0-.15-.12a40.63,40.63,0,0,0,7.16-16.09,51.92,51.92,0,0,0,.41-11.51c-1.68,1.37-3.48,2.6-5.22,3.75l-1,.69c-1.05,8.39-4.77,16.77-8.92,24-2.56,4.42-5.46,8.95-9.24,12.43a24.28,24.28,0,0,1-4.87,3.91l-.18.13a12,12,0,0,1-2,1.24.45.45,0,0,1-.36,0,3.51,3.51,0,0,1-.69.14c-9.7,1.06-19.84-1.46-29.64-1.08-9.3.36-18.48,3.69-27.8,3.32-7.23-.29-11.77-2.86-16.82-7.77-3.11-3-6.29-6.34-10.21-8.3-.67-.34-1.58-.64-2.52-1,8.26,7.82,13.1,20.56,26,22.26,1.19.16,1.28,2,0,1.92-8.24-.2-14.31-4.29-19.42-10.53a115.21,115.21,0,0,0-7.59-9,23.28,23.28,0,0,0-4.8-3.57l-.46-.42c-1.55-1.31-4-2.76-6.18-2.45-1.47,0-2.94-.06-4.42-.08.22,6.14.26,12.29.25,18.43,0,3.81,0,7.63,0,11.44,0,1.17.06,2.29-.05,3.39a22.47,22.47,0,0,0,3.72-4.94c1.23-2.24,2-4.82,3.58-6.81a1.88,1.88,0,0,1,1.13-.32,21,21,0,0,1,1.36,5.25.75.75,0,0,0,.17.37,32.36,32.36,0,0,0,5,13.49,36.64,36.64,0,0,0,4.58,5,15.69,15.69,0,0,1,4.82,5,43.36,43.36,0,0,0-7.76-18.13c-.08-.11.1-.23.19-.14,5.41,5.67,9.5,12.24,10.85,20.06a101.27,101.27,0,0,1,1.3,14.7c1.69-4.36,2.82-8.6,2.22-13.34,0-.26.34-.27.42-.06a15.27,15.27,0,0,1,.43,10.43c-1.25,4.19-3.55,8.69-2.22,13.14,2,6.76,8.94,10.89,10.68,17.7.1.41-.45.81-.75.44-4.48-5.55-11.16-10.09-12.89-17.32,0-.16-.05-.32-.08-.49h-.24c-1.34,5.7-5.44,10.33-12.62,10.6-8.25.3-14.22-4.84-16.81-11.68-.06.12-.13.23-.2.35a14.07,14.07,0,0,1-2.95,4.4,4.11,4.11,0,0,1-.31.29,11.73,11.73,0,0,1-4.42,2.55,9,9,0,0,1-1.27.74c2.31.05,4.76-.32,6.2-1.67a.1.1,0,0,1,.16.12c-2.8,4.35-6.53,6.12-11.85,5.22a14.26,14.26,0,0,1-3.1-.9C344.74,412.37,341.05,407.7,339.17,401.94Z" fill="#f5efe3"/><path d="M427.42,427.82c-1,1-2.15.94-3.46,1.62a13.16,13.16,0,0,0-3.89,2.89c-2.23,2.51-3.28,5.5-4.46,8.57.4.72.8,1.44,1.17,2.14a13.76,13.76,0,0,1,1.92,5.37c0,.36-.45.42-.62.17-1.86-2.72-3.57-5.57-5.53-8.21a19.14,19.14,0,0,0-2.26-2.47,3.07,3.07,0,0,0-.89-1,1.49,1.49,0,0,0-1.3-.59,3.12,3.12,0,0,0-2.43.28h-.08c-2.89,1.76-5.56,3.35-7.58,6.49a46.72,46.72,0,0,0-4,8.07c.17.48.34,1,.49,1.41,1.6,4.81,2.53,9.54,1.49,14.58-.07.33-.51.21-.54-.07-.23-1.83-.42-3.66-.7-5.47a.82.82,0,0,0,0-.42q-.28-1.43-.66-2.82a25.22,25.22,0,0,0-1.09-3.46,27.87,27.87,0,0,0-3.59-6.75.41.41,0,0,0-.05-.09c-.8-1.34-2.9-4.26-4.8-3.92l-.09,0c-2.73.34-5.3.44-7.84,2.21a18.62,18.62,0,0,0-6.93,8.9,34,34,0,0,1,.26,13.93c-.06.32-.52.22-.54-.07-.3-4.59-.41-9.53-2.1-13.86-1.82-4.66-5.23-7.7-9.19-10.61a1.54,1.54,0,0,1-.19-.17c-4.71-.34-9.94,1.1-12.21,5.21l.05.06a1,1,0,0,0-.1.18h0a1.6,1.6,0,0,0-.05.21,17.6,17.6,0,0,0-1.22,5.2c-.06.3-.12.6-.17.9a69.44,69.44,0,0,1-.25,7.36c0,.06,0,.11-.05.18-.23,2.73,1.2,4.62,3.08,6.43,1,1,2.31,2.47,3.81,2.79a16.06,16.06,0,0,0,1.73.66,6,6,0,0,0,.58.26.75.75,0,0,0,.41,0,13.25,13.25,0,0,0,1.46.31,20.73,20.73,0,0,0,7.77-.28c1.72-.43,3.58-1.41,5.33-.72h0c1.41-.29,2.95.82,4.23,1.3,1.11.42,2.26.75,3.4,1.08a39.73,39.73,0,0,0,6.31.79,23.47,23.47,0,0,0,3.64-.17h.06a9.15,9.15,0,0,0,3.84-1.37l.07-.05a18.11,18.11,0,0,0,2-1.34,12.45,12.45,0,0,0,3.75-3.65,2,2,0,0,1,.77,0c3.84.8,8.59.84,12.1-1.18,2.2-1.27,3.54-3.19,5.14-4.87.78-1.22,1.54-2.43,2.31-3.65l.33-.52a42.46,42.46,0,0,0,2-5.3,1.69,1.69,0,0,1,2.8-.74,19.33,19.33,0,0,1,4,7.82c2.67-1.21,4.07-4,5-6.66a18.4,18.4,0,0,0,.79-2,11.44,11.44,0,0,0,1-4.34.61.61,0,0,0-.06-.28C432.19,440.85,431.64,434.59,427.42,427.82Z" fill="#f5efe3"/><path d="M324.91,440c-2.47,3.67-3.24,8.73-3.76,13.06a.12.12,0,0,1-.23,0c-.5-4.89-.3-10.1,2.17-14.42a1.31,1.31,0,0,1-.38-.33c-2.23-3-4.38-7.34-7.81-9.12-2.16,4-4.39,7.52-5.25,12.09-.44,2.3-.79,4.6-1.15,6.91a16.46,16.46,0,0,0-.09,2.43l0,.53a1.48,1.48,0,0,1,.09.57c0,.31,0,.61,0,.92,0,.14,0,.27,0,.41.22,2.8,1.48,5.51,4.24,6.69,2.26,1,4.57.11,6.78.29a2,2,0,0,1,2.18-.11c6.26,3.34,12.54,8.43,19.73,4.72a2.4,2.4,0,0,1,.88-.27.46.46,0,0,1,.57,0,2.3,2.3,0,0,1,.53.14c-1.05-10.37-1.17-19.51-7.39-28.39C331.84,436.13,327.83,435.69,324.91,440Z" fill="#f5efe3"/><path d="M446.53,405.43a1.48,1.48,0,0,1-.12-.41c-4.08,1.45-5,6.9-6.71,11.05l0,.05a.81.81,0,0,1,.29.41l.12.19a10.29,10.29,0,0,1,2.05,3.65,18.49,18.49,0,0,1,1.87,8.83C448.52,423.44,449.38,411.45,446.53,405.43Z" fill="#f5efe3"/><path d="M391.4,419c-1.21-5.15-3.3-12.44-9.07-14.18a3.78,3.78,0,0,0-.64-.12c-.94-1.6-2.84-2.64-4.67-1.37a10.64,10.64,0,0,0-2.34,2.3c0-.71-.06-1.43-.11-2.14-.52-7.21-10.6-6.17-10.23.61a5.79,5.79,0,0,0-.93,0,2.09,2.09,0,0,0-.83.17l-.07,0a5.16,5.16,0,0,0-1.47.72,22,22,0,0,0-4.33,3.38c-1.61,1.51-3.25,3-4.74,4.59a6.61,6.61,0,0,0-.39-.68c-1.51-2.25-5.88-1.69-5.58,1.52.24,2.56,1.47,4.71,2.16,7.15,1,3.55.39,7.65-.11,11.24,0,.18.16.4.35.27,3.13-2.25,3.84-5.43,4.31-9.1,0-.18,0-.37.07-.57,1.94.18,3.66-2.29,4.72-3.65a43.16,43.16,0,0,0,3.64-4.87c2.09,6.72,4.47,14,9.53,18.6a.16.16,0,0,0,.26-.11,37.33,37.33,0,0,0,.12-5.4c2-3,4-5.9,6-8.94a67.46,67.46,0,0,0,3.88-6.21,43.72,43.72,0,0,1,7.06,9.45c2.28,4.07,3,8.63,5.11,12.71a.23.23,0,0,0,.42-.05C394.74,429.78,392.47,423.59,391.4,419Z" fill="#ddd6c8"/><path d="M511.82,284.55a9.76,9.76,0,0,0-3.75-7.7c-11.63-12-30.92-5.68-41.7,5-15.34-3.79-31.42,3.73-43.94,12.25a92.73,92.73,0,0,0-18.27,15.85c-2,2.3-3.82,5.3-6.83,6.3-2.12.71-5.17-3.37-6.8-5.12a.35.35,0,0,0-.6.25c.5,5.94,2.12,12.35,8.74,13.26a1.13,1.13,0,0,0,.75.52c4,.71,7,1.45,11.12.82,4.37-.68,8.45-2.84,12.21-5,8.05-4.7,14.9-11.28,22.87-16.16,9.15-5.59,20.88-8.21,31.47-8.88l4-.24c2.52,5.23,12.8,2.94,17.25,1.06a27.12,27.12,0,0,0,8.47-5.52A6.87,6.87,0,0,0,511.82,284.55Z" fill="#ddd6c8"/><path d="M516.87,306.1c-1.92-5.82-11.2-3.27-9.19,2.53,2.32,6.68,1.05,15.12.34,22-.8,7.74-3.32,18.17-12.74,18.86a.39.39,0,0,0-.11.77c8.77,2.8,15.2-7.13,18.29-14C517.42,327.37,520,315.62,516.87,306.1Z" fill="#ddd6c8"/><path d="M519.7,347.06a3.2,3.2,0,0,1-.55-.42C518.62,346.32,518.33,346.19,519.7,347.06Z" fill="#ddd6c8"/><path d="M520.12,347.29l-.28-.12Z" fill="#ddd6c8"/><path d="M650,329.22c-4.06-.71-8.09.58-12.1,1.28-5.12.89-10.3,1.82-15.32,3.22-14.07,3.93-28.13,7.85-42,12.49s-28,8.93-41.92,13.71c-8.65,3-17.09,6.63-25.59,10.05-1.43.11-2.86.24-4.28.42a276.63,276.63,0,0,1,34.42-20.07c14.09-7,29.62-12.61,42.33-22.05a.47.47,0,0,0-.47-.81c-14.57,6.32-28.88,12.81-43.93,18-7,2.4-14,5.14-20.81,8.06-3.52,1.5-7,2.79-10.48,4.5-.48.23-.95.49-1.42.75,1.8-1.92,3.38-3.8,4.65-5.33a80.24,80.24,0,0,0,5.5-7.5l0,.05a3.23,3.23,0,0,0,.57.7,4.62,4.62,0,0,1,1,.65,4.65,4.65,0,0,0,3,.37c1.7-.37,3.32-1.78,4.74-2.71,5-3.31,10.2-6.48,15.12-10,5.64-4,11.64-7.49,17.22-11.55,3.31-2.4,7.11-4.71,9.72-7.9.16-.19,0-.52-.28-.37a259.83,259.83,0,0,1-29.43,15.08c-5.5,2.49-10.89,5.26-16.29,8l-1.21.61a102.41,102.41,0,0,0,6.59-15.27c4-11.68,3.94-25,1-36.86a81.75,81.75,0,0,0-6.39-16.63c-.8-1.63-1.65-3.4-2.57-5.19-.06-7.46-6.47-13.75-9.27-20.45-3-7.1-1.6-15.31-3.32-22.63,2.19-5,2.13-11,2.6-16.3.57-6.3.93-12.62,1.36-18.94a200.06,200.06,0,0,1,4.76-33.76c2.07-8.54,7-25,3.33-35.59,0-9.81-2.41-19.29-5.9-28.65a67.43,67.43,0,0,0-13.6-22.6A89.33,89.33,0,0,0,485.9,44.56c-1.27-2-2.6-4-4-5.81a79.62,79.62,0,0,0-6.33-6.91c-2.48-2.57-3.77-5.87-6.79-7.88a3.53,3.53,0,0,0-3.31-.29,32.9,32.9,0,0,0-10-3.77c-1.12-.74-2.26-1.46-3.46-2.15-10.13-5.84-21.45-7.18-32.84-5.19a.32.32,0,0,0,0,.61c9.69,2.3,19.3,5.4,27.83,10.65S462.33,37.61,468,45.89l2.63,3.87c1.32,2.72,2.68,5.42,4.16,8.07,3,5.4,6.33,10.69,9.43,16.07a28.33,28.33,0,0,1,1.65,7,16.57,16.57,0,0,1-.29,4.87c-.42,1.93-2.13,3.43-2.6,5.48a2,2,0,0,0,0,.24,15.72,15.72,0,0,0-8.63-2.64c-.48,0-.73.72-.26.94,3.37,1.6,5.82,6.39,7.4,9.55,2,4,3,8.44,4,12.73.9,3.93,1.55,7.9.35,11.8-1.85,6-3,10.27-.67,16.4,1.9,4.9,4.89,9.22,5.89,14.44.69,3.66.47,7.58.35,11.28a41.66,41.66,0,0,1-1.92,11.35,7.86,7.86,0,0,1-.74,1.6c-.63.37-1.25.75-1.85,1.12a64.47,64.47,0,0,0-17.68,16.53,55.6,55.6,0,0,0-9.74,21.59A52,52,0,0,0,458.13,232a14.64,14.64,0,0,1-2.37,3c-2.28,2.17-6.82,2.31-9.69,2.83a62.74,62.74,0,0,0-14.95,4.31c-8.36,3.77-15.68,9.87-21.76,16.66-4.87,5.43-12.71,14.74-12.13,22.54a.56.56,0,0,0,.94.38c.49-.45,1-.92,1.42-1.42,3.49-1.88,6.55-4.73,9.61-7.18,5.67-4.54,11.34-9.2,18.13-11.95,5.71-2.31,11.85-2.88,17.76-4.45,4.71-1.26,9.45-2.46,14.11-3.87,1.81-.55,3.59-1,5.3-1.52a29.36,29.36,0,0,0,5.59.52c6.68.21,12.44-.44,18.91,1.8A45.88,45.88,0,0,1,502.88,262a57.81,57.81,0,0,1,4.9,4.88,14.23,14.23,0,0,0,2.76,3.21,4.52,4.52,0,0,0,1.3.75,19.94,19.94,0,0,0,2.26,1.67,113.73,113.73,0,0,1,8,14.39,51.31,51.31,0,0,1,3,34.09,69.06,69.06,0,0,1-14.38,28,52.22,52.22,0,0,1-11.23,9.85c-1.33.87-2.8,1.62-4.28,2.39a7,7,0,0,0-1.17.25,5.81,5.81,0,0,0-2.36-1.36c-8-2.49-17.39-3.68-25.72-4.21-7.65-.49-15,1.09-22.48,2.42-5.77-3.29-13.6-4.25-19.69-5.59-8.15-1.81-16.72-3.31-23.77-8-9.7-6.49-12.89-22.91-25.16-24.54.29-1.3.49-2.6.65-3.87.59-4.57-.29-9.37-1.45-13.78-.94-3.56-3.06-6.86-4.16-10.24a.16.16,0,0,0-.31.05,61.38,61.38,0,0,1-1,8.25c-.51,3.41-1.28,6.94-2,10.33a22.89,22.89,0,0,1-2.31,6.8l-.35-.1a22.94,22.94,0,0,0,1.13-5.28.78.78,0,0,0-1.33-.56c-4,5-7.1,11.8-14,7.79-6.18-3.57-12.27-9.77-16.86-15.13-2.91-3.38-5.49-7-8.33-10.47a48.55,48.55,0,0,0-3.74-3.85l-1.24-1.24a1.14,1.14,0,0,0-.11-.11,2.89,2.89,0,0,0-.18-.37c.69,1.25.19-.1.13-.8-.25-2.62-.48-5.21-.9-7.81a42.78,42.78,0,0,0-4.86-13c-4.15-7.75-10.81-14.36-17.81-19.55s-16.69-8.17-23.34-10.88c-.23-.88-.45-1.76-.69-2.63a36.42,36.42,0,0,0-3.66-8.53c4.71,1.12,10.41,2.5,15.29,1.87,7.31,3.72,14.67,7.18,21,12.57a40.22,40.22,0,0,1,7.58,8.47c2.2,3.27,3.71,7.07,6.74,9.67a3,3,0,0,0,2.22.64c.89,2.74,1.75,5.5,2.6,8.29,2.61,8.49,6.19,16.62,15.05,19.83.87.31,1.3-.95.6-1.41-8.68-5.73-9.21-18.43-10.76-27.67-1.77-10.54-5.18-20.07-9.5-29.8A83.33,83.33,0,0,0,299.68,201c-6.29-5.78-14.2-11.38-22.75-12.59-10-9.87-14.44-25.56-16.9-38.81a112.28,112.28,0,0,1-1.74-30.17c.69-8,1-15.72,4-23.14.51-1.27-.94-2.14-2-1.84a2.91,2.91,0,0,0-.72-.84c-2.07-1.69-4.29-2.71-5.8-5s-1.46-5-1.42-7.5c.09-5.79,2.08-11.61,4-17a66.78,66.78,0,0,1,11.15-20.39c4.87-6,11-11,13.95-18.14a.67.67,0,0,0-.82-.82c-8.22,3.3-15.23,10.41-21,17.13a56.36,56.36,0,0,0-4.94,6.81c-5.2,3.48-8.21,8.85-11.4,14.25a167,167,0,0,0-20.08,54.8,112.8,112.8,0,0,0-3.16,11.57c-2.53,11.93-3.07,27.52,3,39,.16,1,.34,1.89.53,2.84A105.31,105.31,0,0,0,230,191.78c.69,1.65,1.42,3.54,2.26,5.45-.31,5.27-.86,10.55-1,15.81-.07,3.31.78,6.89,1.36,10.43-2.92,7-5.67,14.05-8.39,21.12-2.43,6.37-4.74,12.7-6.8,19.2-1.12,3.5-2.16,7-3.27,10.54-1,3.22-1.63,6.68-2.88,9.78a1,1,0,0,0,.88,1.24,44,44,0,0,0-2.45,4.73,48.44,48.44,0,0,0-3.61,22.29.12.12,0,0,0,.22.05c.21-.38.41-.78.61-1.18a43.34,43.34,0,0,0,7.37,23.42,49.09,49.09,0,0,0,3.36,4.23c-16.09-5-32.56-8.91-49-12.5-8.8-1.92-17.5-3.76-25.87-7.15a131.53,131.53,0,0,1-12-5.62c-4.09-2.16-8.23-3.68-12.39-5.59a.39.39,0,0,0-.48.61c2.57,2.83,4.56,5.49,7.86,7.53A122.06,122.06,0,0,0,138,322.63c8.3,3.91,16.81,7.69,25.36,11,12.27,4.78,25,8.06,37.63,11.69l-1.61-.09a369.16,369.16,0,0,1-38-3.62c-13.77-2.19-27.58-4.46-41.24-7.26-5.92-1.21-11.37-3.31-17.08-5.18A25.92,25.92,0,0,0,96.26,328a9,9,0,0,0-1,0c-5.77-2.33-11.38-5-17.42-6.87-6.67-2.06-13.77-3.45-20.21-6.25,1.65-.33,2.5-2.94.68-3.76-8.16-3.69-13.42.22-18.61,5.5-3.63,1.94-7.16,4.09-11.44,4.19-5.75.15-11.21-6.28-15.36-9.54a.16.16,0,0,0-.25.18c1.88,4,4.4,8.05,7.85,10.83a3.79,3.79,0,0,0-2.06,1.16c-3.6,3.6-.3,9.22,3.67,10.71s9.45.12,12.67-2.58a55.43,55.43,0,0,0,9-9c2.76-3.58,5-7.4,8.87-8.06a1.77,1.77,0,0,0-.19,1.39c2.08,7.73,14.87,9.79,21.29,11.71,11.25,3.36,21.12,10.55,32.95,12l2.63.9A125.05,125.05,0,0,0,127.07,345c3.54,2.61,8.33,4.22,12,5.46,5.93,2,12.33,2.8,18.59,3.51a19.91,19.91,0,0,0,7.9,4.67c5.88,2.05,11.27,4.64,17,7,6.73,2.8,15,5.06,21.38,9.32.66,5.05,4.4,9.45,9,10.31a4.09,4.09,0,0,0,2.86,1.62,5.71,5.71,0,0,0,2.3,1c7.14,1.37,13.9-.17,21-.83a61.82,61.82,0,0,1,9.33,0c4,1.85,7.91,3.89,12,5.55,6.53,2.64,13.6,3.92,19.88,7a8.28,8.28,0,0,0,5.45,3.37c.29.23.58.45.87.7a7.19,7.19,0,0,0,4.93,1.82c-.95,4.68-1.26,9.36.34,13.17a14.73,14.73,0,0,0-.74,6.89c.27,1.7,2.71,2.14,3.79,1a16.81,16.81,0,0,0,1.09-1.31,19.7,19.7,0,0,0,1.83,5.3c1.75,4.08,5.31,10.12,10.46,9.27a2.44,2.44,0,0,0,.69-.23,8.88,8.88,0,0,0,.48,2.91,5.59,5.59,0,0,0,7.88,3c1.39-.71,2.69-2.2,1.75-3.8s-2.86-.71-3.94.05c-2,1.39-2.94-1.37-3.1-2.87-.14-1.32.3-2.63.28-3.95a29.51,29.51,0,0,1,.42-4,.19.19,0,0,0-.36-.1c-.56,1.29-1.34,2.44-2,3.65-1.82-2.39-4.37-4.14-6.22-6.66a31,31,0,0,1-4.52-8.29l.44-.66a90.85,90.85,0,0,1,6.77-7.91c1.09-1.24,2.37-2.57,3.64-4a6,6,0,0,0,1.82-2.11c2.69-3.27,4.91-6.93,4.66-10.86a45.3,45.3,0,0,0,2.25-13.08c1.57,7.35,1.31,15.47.72,22.85a64.33,64.33,0,0,1-5.4,9.89,13.81,13.81,0,0,0-2,10.34.31.31,0,0,0,.57.07c2.54-4.34,6.81-7.49,10.16-11.18a30.13,30.13,0,0,0,4.43-6.58c-.79,6.36-1.93,12.68-2.49,19.11a.63.63,0,0,0,1.07.44c7.53-8.49,9.86-20.51,11.18-31.5.61-5,.77-10.16,1-15.22a48.73,48.73,0,0,1,1-8.09c.07-.33.16-.65.25-1a.23.23,0,0,0,.37-.1c4-9.77,13.76-17.55,20.18-25.73a54,54,0,0,0,4.4-6.41c.36,1.23.68,2.44.91,3.61,1.13,5.83,1,11.77,4.6,16.76.68.95,2.29,1.5,3.17.41,4-5,4-11,3.67-17.2a81.82,81.82,0,0,0-.76-8.81l.36.25a38.92,38.92,0,0,0,1.28,6.64,21.69,21.69,0,0,0,3,8.26c2.28,5.18,5.08,10.19,7.59,15a78.3,78.3,0,0,1,6.42,15.54,31.74,31.74,0,0,1,.95,6.73c-2.41,3-3.19,7.67-2.64,11.63-1.21-1.81-4.53-2.11-5,.55-2.21,12.89,15,15.49,21.06,23.36.95,1.23,3,.15,2.16-1.27a35.35,35.35,0,0,0-3.94-5.1.3.3,0,0,0,.16-.35c-1.24-3.86-3.45-7.22-5.16-10.85-.1-.53-.19-1.05-.25-1.58a44.65,44.65,0,0,1-.29-5.68,21.72,21.72,0,0,0,1.39-7c.38-.43.74-.87,1.07-1.32A41.25,41.25,0,0,0,424.2,418.5a.16.16,0,0,0,.19-.24,34.4,34.4,0,0,1-4.07-4.89,3.12,3.12,0,0,0,.92-.31c.69,1.28,1.44,2.54,2.26,3.76a.9.9,0,0,0,1.55-.91c-3.7-8.67-4.06-17.35-1.95-26.35.9,4.46,2.63,9.11,5.64,12.09.18.47.35,1,.54,1.42a25.26,25.26,0,0,0,3.2,5.13c0,.09,0,.19.08.28a2.12,2.12,0,0,0,1.07,1.34,22.37,22.37,0,0,1,1.88,3.13c.27,1.26.53,2.53.77,3.81a2,2,0,0,0,.07.26,4.22,4.22,0,0,1-.1.7.55.55,0,0,0,1.06.29.94.94,0,0,1,0-.16,1.7,1.7,0,0,0,1.94-1.5v0a.86.86,0,0,0,.4-.42c.89-2,.92-4.33,1.86-6.39a9.66,9.66,0,0,1,4.59-4.82c1.88-.87,1.63-3,.45-4.16,6-2.27,11.67-5.65,17.77-7.77a171.41,171.41,0,0,1,20.34-5.36c7.29-1.57,14.52-3.29,22-2,6.44,1.14,13.32,3.56,19.24-.51a3.37,3.37,0,0,0,1.23-4c7.15-2,13.66-7,18.62-12.23a25.5,25.5,0,0,0,3.77-2.08,1.47,1.47,0,0,0-.66-2.72c11.73-4,23.57-7.78,35.31-11.8,13.63-4.67,27.47-8.57,41.42-12.13,7-1.79,21.75-1.91,24.82-10A.67.67,0,0,0,650,329.22ZM410.62,269.75c-2.18,1.84-4.53,3.59-6.81,5.39a32.32,32.32,0,0,1,2.92-3.27,68.07,68.07,0,0,1,11.85-8.66l.88-.52C416.38,264.87,413.47,267.35,410.62,269.75Zm-58.39,68.89c-2.9,3.36-5.79,6.73-8.82,10-5.59,6-11.91,12.37-19.81,12.77a17.69,17.69,0,0,0-4.23-2.18,85.15,85.15,0,0,0-9.54-4.81c-6.43-2.81-13.81-4.27-20.74-5.24-13.49-1.9-33-3.23-43.47,7.64-1.53-1.72-3.11-3.29-4.4-4.58-5.39-5.39-11.61-9.89-17.13-15.15-10.8-10.28-13.24-23.49-11.89-37.31a40.15,40.15,0,0,1,3.57-6.17c5.19-7.23,12.76-12.42,18.08-19.6,5.2-7,7.17-13.88,8.51-22.35a24.76,24.76,0,0,1,2.57-8.38,90.28,90.28,0,0,0,6.72,8.24,5.66,5.66,0,0,0,5,2,23.26,23.26,0,0,0,4.49,2.87c5.39,2.62,11.39,3.74,16.79,6.34,5.73,2.77,9.89,7.6,13.39,12.79,12.06,17.84,20.85,46.33,44.25,51.91,5.82,3.66,13.26,4.71,19.52,1.65a12.73,12.73,0,0,0,1.63-1C356.27,331.6,354.15,335.36,352.23,338.64Z" fill="#ddd6c8"/><path d="M81.59,274.19c-5.63,1.23-3.28-4.28-5.11-7.72a46.11,46.11,0,0,0-6.08-9.28c-4.82-5.38-14.63-7.93-21-4.31l-.14.1c-4.36.14-8.94,2-12.65,3.8-3.18,1.51-5.55,4.09-8.1,6.39s-4.5,5.78-7.91,6.74a.48.48,0,0,0-.11.86c4.92,2.52,7.68-1.67,11.78-3.13l-1.11.9c-2.86,2.3-8,7.49-8.66,12.17-6.4,4.6-10.83,14.35-4.1,20.48.67.61,2.14.27,2-.82-.55-4.34.2-8.68,3.05-11.59a9.55,9.55,0,0,0,4.28,1,2.45,2.45,0,0,0,2.43-2.43c.25-4.95,3-8.42,4.73-12.76a60.76,60.76,0,0,0,8.73-4.52c3.1-2,6.67-3.94,8.7-7.16a11.8,11.8,0,0,0,1.44-.51A32.89,32.89,0,0,1,60.46,264c2.94,1.27,5.2,3.81,7.28,6.15,4,4.46,8.81,10.28,14.54,5.23C82.84,274.87,82.23,274.05,81.59,274.19Z" fill="#ddd6c8"/><path d="M715.23,281.05a5,5,0,0,0-5.28-1.11c.89-8.07-1.48-16.34-8.32-21.26-5.5-4-15.86-6.71-21.6-2.31a18.16,18.16,0,0,0-15.06,3.5c-2.6,1.94-5.3,5.05-5.51,8.51a13.86,13.86,0,0,0-9,4.2c-1.73,1.67-4.22,4.64-4.67,7.09a11,11,0,0,0-.31,4.2,3.8,3.8,0,0,0,.46,1.35l.39.49c-2.86,2.57-5.66,5.19-8.38,7.73-4.11,3.84-9.19,6.8-13.86,9.92-3.85,2.57-8.59,5.21-11.41,8.95-.07.09,0,.18.13.17,4.56-.8,9.07-3.81,13-6.13,4.55-2.67,9-5.63,13.62-8.14,9.46-5.12,19.83-10.35,27.19-18.47a4,4,0,0,0,1-3c.1-.18.19-.36.28-.55,3.73-.55,7.6-2,11-2.51,4.12-.64,9.2-.73,13.12-2.67a3.28,3.28,0,0,0,.84.41,10.23,10.23,0,0,1,2.56,1.3c1.13.9,1.84,2.14,3.06,2.93a3.18,3.18,0,0,0,3.47,0c1,3,1.32,6.43,2.64,9.28,0,0,0,.07,0,.1,1.34,3.81,6.05,6.35,8.45,9.71,2.94,4.11,4.63,8.47,4.3,13.58a.27.27,0,0,0,.11.25c-.12.3-.24.6-.37.89-.29.68.51,1.48,1.11.85C727.41,300.71,724.75,289.3,715.23,281.05Z" fill="#ddd6c8"/><path d="M715.28,328c-4.46-.15-8.57.7-11.07-3.84-1.79-3.22,1-7.6-.67-11.23-2.83-6-8.28-6.71-13.46-5.11-1.72-5.88-7.12-9.67-14.84-7.44-5.22,1.51-9.45,5.46-12.76,9.58-1.89,2.36-3.6,4.87-5.35,7.33-1.49,2.1-3.53,3.88-4.79,6.09-1.59,2.78,1.08,7.23,4.5,5.86l.67-.32a4.65,4.65,0,0,0,2.27.55c3.52,0,6.61-3.63,9.28-6.23a53.86,53.86,0,0,1,9.23-5.93c3.62,3.36,8.38,5.21,13.3,6.19a5.16,5.16,0,0,0,5.69,4,12.5,12.5,0,0,0,2.64,3.06c4.48,3.77,12.76,3.32,15.7-2A.4.4,0,0,0,715.28,328Z" fill="#ddd6c8"/><path d="M120.66,493.16c-4.79,2.89-12.72,2.52-17.49-.45-2.25-1.4-3.32-3.34-5.25-5.13-2.55-2.35-5.87-3-9.23-2.82-5.6.35-10.22,4.44-9.23,10.32s7.71,7.85,12.82,7.92a5.52,5.52,0,0,0,5-2.45,18.79,18.79,0,0,0,5.88.9c7.06.05,14.23-1,17.85-8A.24.24,0,0,0,120.66,493.16Z" fill="#ddd6c8"/><path d="M139.28,535.88c-1.15,0-2.17.26-3.3.38-.91.09-1.28-.53-1.67-1.37a2.35,2.35,0,0,0-1.14-1.18c-.1-.27-.21-.54-.33-.8-4.54-9.29-15.07-9.51-24-8.59-5,.51-9.91,1.22-14.89,1.52-4.46.27-9,.72-13-1.78a.36.36,0,0,0-.52.4c2.47,8.75,11.6,11.09,19.76,10.94,2.47,0,6.24-.64,10-.83a6,6,0,0,0,4.15,5.17,33,33,0,0,0,11.8,2c.24,2.6,4.13,3.59,5.75,1.14a7,7,0,0,1,1.37-1.28,2.67,2.67,0,0,0,.62-.78l.56,0a7.25,7.25,0,0,0,5.85-2.48A1.5,1.5,0,0,0,139.28,535.88Z" fill="#ddd6c8"/><path d="M161.75,541.4a1.37,1.37,0,0,0-1.33-.35c-2.57.88-4.17,3.44-5.95,5.37a45.29,45.29,0,0,1-8.85,7.55c-3,2-6.4,4.08-10.05,4.24-3.06.13-7.11-3.31-7.57-6.41,0-.26-.46-.19-.46.07,0,2.3-1,3.29-.27,5.69A7.55,7.55,0,0,0,131,561.8c3.83,2.26,9.8,1.35,13.78.05a36.46,36.46,0,0,0,13.81-8.75C161.14,550.62,165.24,544.69,161.75,541.4Z" fill="#ddd6c8"/><path d="M633.69,487.8a94,94,0,0,0-12.34,2.49c-3.48,1-7.46,3-11.07,3.34a.24.24,0,0,0-.12.44c4.73,2.6,10.38,2.78,15.76,2.54a3.36,3.36,0,0,0,3.69,2.27c2.76-.42,7,1.09,10.39.95a5.92,5.92,0,0,0,.84,1c1.2,1.15,3.34,2,5,1.32l.81-.33c2-.84,4-2.51,3.77-5C649.73,488.14,640.93,486.63,633.69,487.8Z" fill="#ddd6c8"/><path d="M643.6,522l.11-.06c1.47,1.67,0-.14-.52-.56a9,9,0,0,0-2.87-1.56c-1.48-.58-3.17-.83-4.71-1.27-5.49-1.56-11.25-1.13-16.78.15-4.67,1.08-9.46,3.74-12.06,7.84a11.73,11.73,0,0,0-1.43,5.52c-3-2.59-6.91-4-11-5.55-.29-.11-.55.27-.4.51a26.29,26.29,0,0,0,3.86,4.63c1.88,1.85,5.73,3.7,5.95,6.65a4.29,4.29,0,0,0,0,3.37c-.23,2.23-.19,4.71-.37,7a1.44,1.44,0,0,0-.22.27,16,16,0,0,0-1.91,6.09,5.56,5.56,0,0,1-2.61,1.55c-1.87-.16-3.78-.26-5.63-.44-3.31-2.29-2.9-9.11-3.71-12.33-1.56-6.17-7.81-7.37-12.75-5.17-.44-1.11-.92-2.2-1.45-3.25,3.56-6.84-5.23-19.2-8.88-23.91a122.52,122.52,0,0,0-21.56-21.91c-.74-.57-1.67.51-1.23,1.23,4.81,7.85,10.35,15.16,14.79,23.25A94.51,94.51,0,0,1,564,526.72c1.4,3.79.83,8.95,4.69,11.22a4.29,4.29,0,0,0,1.47.52,56.55,56.55,0,0,0,1.09,6.26A15.65,15.65,0,0,0,574,557.65a4.64,4.64,0,0,0,4.28,1.52,16.81,16.81,0,0,0,7.23,3.91,10.18,10.18,0,0,0,6.62,3,14.67,14.67,0,0,0,6.85-1.37c1.87.08,3.67.16,5.31.31a3.58,3.58,0,0,0,3.61-3.61c-.31-2.46-.32-5-.56-7.57a16.88,16.88,0,0,0-.46-9.09,3.32,3.32,0,0,0,3.08-.63,71,71,0,0,1,16.33-9.58c3.91-1.61,9-2.37,13-4.38a6.45,6.45,0,0,0,4.47-1.52C646,526.75,645.39,523.78,643.6,522Z" fill="#ddd6c8"/><path d="M542.83,484.31C538,480,531.74,477.55,526,474.78c-10.33-4.94-21.15-8.86-31.64-13.47s-20.94-9.2-31.36-13.91c-1.83-.83-3.74-1.75-5.67-2.66a158.6,158.6,0,0,0,16.79,2.56c5.89.61,11.77-.88,17.65-1.24a113.7,113.7,0,0,1,13.44-.16c4.2.25,8.45,2.27,12.62,1.86a.4.4,0,0,0,.34-.59c-3.38-5.31-12.31-5.47-17.94-5.77-7.33-.39-14.59.35-21.78-1.41-4.88-1.2-9.74-2.24-14.55-3.75a59.36,59.36,0,0,1-7.34-2.63c-1.79-.83-3.59-2.15-5.51-2.61a4.73,4.73,0,0,0-1.34-.13,14.78,14.78,0,0,0-1.35-3.77,4.08,4.08,0,0,0-.28-.44c2.82-7.48,3.57-15.83-.16-23.14-1.63-3.19-6.8-2.43-7.6,1-1.39,6-4.38,11-7.15,16.27-1.88,1.89-2.88,4.83-3.45,7.36a2.53,2.53,0,0,0,0,1.06,6.29,6.29,0,0,0-.37.67c-1.16-2.54-3.23-3.93-6.2-.95a.27.27,0,0,0,.12.46c5.07,1.65,1.66,9.28.13,12.66a15.68,15.68,0,0,1-3.65,4.43,19.07,19.07,0,0,1-.78-3.73c-.29-3.73,1.57-7.59.88-11.2a.28.28,0,0,0-.33-.19c-3.08.82-4.91,4.11-5.63,8-1-2.6-2.7-4.59-5.34-4.79a1.53,1.53,0,0,0-1.31,2.29c2.34,3.63,2.64,7.82,2.29,12-.51,6.26-4.65,9.89-10.22,11.13-.11-.25-.22-.5-.32-.76a30.69,30.69,0,0,1-1.78-6.67,19.24,19.24,0,0,1,.09-8.17c.46-1.68,1.8-2.8,1.91-4.54a.12.12,0,0,0-.12-.12c-3.72.12-5.62,6.9-6.39,10.55a20.55,20.55,0,0,0-3.81-4.49.08.08,0,0,0-.13.08c.81,2.32.4,5.15.91,7.6a21.92,21.92,0,0,1-.36,10.06,11,11,0,0,1-3.24,5c-1.93.15-3.9.73-5.87.57a18.67,18.67,0,0,1-3.6-.69,67.85,67.85,0,0,0-1.42-7.2,30.66,30.66,0,0,1,.07-13.71.43.43,0,0,0-.72-.42,25.29,25.29,0,0,0-6.29,11.26c0,.1-.05.21-.08.32-.76-5.42-3.28-10.47-7.93-13.26-.23-.14-.54.14-.38.37,4.18,6,4.92,14.78,2.51,21.81a58.83,58.83,0,0,1-7.36,1.09c-1-.68-1.87-1.49-2.69-2.15a28.36,28.36,0,0,1-4.16-4.25,25.63,25.63,0,0,1-.69-6.67c0-2.8.93-8.46,2.91-10.69,0,0,0-.08-.05-.06-2.37,1.43-3.44,1.37-5.32,3.68a17.53,17.53,0,0,0-1.56,2.33c-.69-4-2.46-6.61-4.84-9.76-.41-1.06-.88-2.08-1.34-3.06a.2.2,0,0,0-.37.1c.09,4.54-.62,14.37-6.77,14.84a4.53,4.53,0,0,0-2.08.68l-.12-.09a24.39,24.39,0,0,1-1.12-2.22c-1.75-3.56-2.07-8.06-2.24-12,0-.37-.53-.68-.8-.34-.13.16-.24.33-.35.49,0-.13,0-.27,0-.4a2.41,2.41,0,0,0-1.31-1.93c0-.07-.05-.14-.08-.2a.59.59,0,0,0-.39-.3,14.33,14.33,0,0,0-3.76-7.32c-1-1-2.35.46-1.49,1.49a9.77,9.77,0,0,1,2,7.44c-.1.88-.41,2.38-1.2,2.94-1.12.79-2.43.62-3.5,1.69l-.15.2a10.31,10.31,0,0,1-2.66-3.26,5,5,0,0,0-4.34-3.27,5.18,5.18,0,0,0-2.46-.72c-.47-.66-1-1.31-1.45-1.95l-.43-.56a3.51,3.51,0,0,0,.07-1.94,24.9,24.9,0,0,0-2.68-6.52,7.84,7.84,0,0,0-.83-1.46l-.06-.07c-.44-.73-.88-1.44-1.33-2.16-1.64-2.6-6.13-2.42-6.86.9a14.41,14.41,0,0,0-.26,4.59,3.78,3.78,0,0,0-2.65,0c-9,3.4-14.5,13.58-23.7,15.9-.08,0-.13.07-.21.09-6.21.78-12.58.25-18.81.35a33.4,33.4,0,0,0-21.63,7.81,13.77,13.77,0,0,0,1.07-1.76.51.51,0,0,0-.7-.69c-3.28,1.64-5.83,4.94-8.13,7.86-6.42,1.88-12.84,5-18.8,7.69-7.58,3.46-15.25,6.73-22.89,10-6.15,2.65-12.11,6.49-18.93,6.78a142.73,142.73,0,0,0-16.52,1.45.12.12,0,0,0,0,.23A41.62,41.62,0,0,1,148.69,485a21.24,21.24,0,0,0,7.15,1.74c6,.49,12.31-3.47,17.56-5.71q12.36-5.3,24.6-10.86c7.51-3.42,16-7.38,22-13.09a.94.94,0,0,0,.19-1.2c4-1.82,7.69-4.17,11.9-5.49,6.2-1.95,13.09-.59,19.44-.39a98.19,98.19,0,0,0,16.9-.64q-3.6,2.4-7.19,4.82c-8.25,5.6-16.71,10-25.64,14.38-4.23,2.09-8.2,4.43-12.63,6.1a115.52,115.52,0,0,0-12.67,5.22c-8.28,4.27-10.93,12.7-16.35,19.65-.27.35.09,1,.53.68a50.26,50.26,0,0,0,4.8-4c14-7.27,28.53-13.76,43.11-19.89,7.8-3.28,16.21-5.22,23.84-8.86,5.67-1.27,11.3-2.39,16.69-4.8,5.92-2.64,13.57-7.21,16.62-13.16a4.59,4.59,0,0,0,.38-1.19l.16.17a4,4,0,0,0,.89.66,4.82,4.82,0,0,0,3.1,1.73s0,.06,0,.1c1.64,6.25,9,13.93,14.88,9.87a12.73,12.73,0,0,0,4.64,3.31,4.94,4.94,0,0,0,2.67.32,19.78,19.78,0,0,0,5.52,3.53c2.94,1,6.8.65,9.16-1.27a14.53,14.53,0,0,0,1.41,3.05,3.8,3.8,0,0,0,4.13,1.87,8.35,8.35,0,0,0,6,3.64c4.12,2.53,9.49,3.36,12.31-.77a5,5,0,0,0,4.05,2.32l.44,0a21.82,21.82,0,0,0,6.16,1.9,3.86,3.86,0,0,0,.58.17,12.86,12.86,0,0,0,3,.13,27.92,27.92,0,0,0,12.48-2.73,7.46,7.46,0,0,0,4.43-7.54c.12.11.24.22.37.32a4.5,4.5,0,0,0,4.27,2.5c8.19-.23,16.09-8.77,18.94-16.43h.06c.13,0,.25,0,.37-.06a13.75,13.75,0,0,0,.48,3.69c1.07,4.07,6.17,4.2,8.34,1.09a19.11,19.11,0,0,0,2.8-6.2,5,5,0,0,0,3.2,1.93c7.66,1.55,14.68,4.92,22.34,6.52q7.53,1.56,15.09,3c3.45.68,8.48,2.25,11.74.5l7.49,2.56c16.77,5.76,33.23,13.94,50.69,17.36C542.78,485.76,543.46,484.87,542.83,484.31Z" fill="#ddd6c8"/><path d="M267.55,219c12,6.78,24.86,12.84,35.66,21.44,12.05,9.6,17.38,22.13,18.16,37.29a1.34,1.34,0,0,0,2.67,0c1.26-15.06-5.28-28.54-16.59-38.21-11.57-9.88-25.83-15.1-39.59-21.05C267.51,218.33,267.2,218.81,267.55,219Z"/><path d="M343.7,291.06a1.32,1.32,0,0,0,.35-2.58c-8.64-2.07-13-9.7-16.54-17.21-.45-1-2-.28-1.71.72C328.41,280.61,333.62,290.5,343.7,291.06Z"/><path d="M372.21,191.74a.5.5,0,0,0,1,0c.34-10.41.86-20.78-1.29-31.05-.06-.27-.45-.15-.41.11C373.09,171.05,372,181.43,372.21,191.74Z"/><path d="M353.44,413.85c5.32.9,9.05-.87,11.85-5.22a.1.1,0,0,0-.16-.12c-1.44,1.35-3.89,1.72-6.2,1.67a9,9,0,0,0,1.27-.74,11.73,11.73,0,0,0,4.42-2.55,4.11,4.11,0,0,0,.31-.29,14.07,14.07,0,0,0,2.95-4.4c.07-.12.14-.23.2-.35,2.59,6.84,8.56,12,16.81,11.68,7.18-.27,11.28-4.9,12.62-10.6h.24c0,.17,0,.33.08.49,1.73,7.23,8.41,11.77,12.89,17.32.3.37.85,0,.75-.44-1.74-6.81-8.67-10.94-10.68-17.7-1.33-4.45,1-8.95,2.22-13.14a15.27,15.27,0,0,0-.43-10.43c-.08-.21-.46-.2-.42.06.6,4.74-.53,9-2.22,13.34a101.27,101.27,0,0,0-1.3-14.7c-1.35-7.82-5.44-14.39-10.85-20.06-.09-.09-.27,0-.19.14a43.36,43.36,0,0,1,7.76,18.13,15.69,15.69,0,0,0-4.82-5,36.64,36.64,0,0,1-4.58-5,32.36,32.36,0,0,1-5-13.49.75.75,0,0,1-.17-.37,21,21,0,0,0-1.36-5.25,1.88,1.88,0,0,0-1.13.32c-1.6,2-2.35,4.57-3.58,6.81a22.47,22.47,0,0,1-3.72,4.94c.11-1.1.05-2.22.05-3.39,0-3.81,0-7.63,0-11.44,0-6.14,0-12.29-.25-18.43,1.48,0,2.95,0,4.42.08,2.15-.31,4.63,1.14,6.18,2.45l.46.42a23.28,23.28,0,0,1,4.8,3.57,115.21,115.21,0,0,1,7.59,9c5.11,6.24,11.18,10.33,19.42,10.53,1.28,0,1.19-1.76,0-1.92-12.89-1.7-17.73-14.44-26-22.26.94.35,1.85.65,2.52,1,3.92,2,7.1,5.27,10.21,8.3,5.05,4.91,9.59,7.48,16.82,7.77,9.32.37,18.5-3,27.8-3.32,9.8-.38,19.94,2.14,29.64,1.08a3.51,3.51,0,0,0,.69-.14.45.45,0,0,0,.36,0,12,12,0,0,0,2-1.24l.18-.13a24.28,24.28,0,0,0,4.87-3.91c3.78-3.48,6.68-8,9.24-12.43,4.15-7.19,7.87-15.57,8.92-24l1-.69c1.74-1.15,3.54-2.38,5.22-3.75a51.92,51.92,0,0,1-.41,11.51,40.63,40.63,0,0,1-7.16,16.09c-.07.09.08.21.15.12A46.66,46.66,0,0,0,509.46,304c2.29,3.61,6,6.3,7.48,10.4,0,.09.21.09.2,0a31.63,31.63,0,0,0-3.48-11c-1-2-2-3.71-2.18-6-.22-3.24,1.82-6.36,3-9.26a1.13,1.13,0,0,0,.08-.56,9.55,9.55,0,0,0,.92-3.05,18.16,18.16,0,0,0,.11-4.17c.42-5.64-1.48-11.2-5.2-16.44-3.29-4.65-7.41-8.66-10.79-13.25A71,71,0,0,1,491,234.3c-5.22-13.25-6-27.23.11-40.31a.49.49,0,0,0-.85-.49c-9.28,14.52-7.12,33.35.16,48.65a16.17,16.17,0,0,1,.64,3,1.57,1.57,0,0,0-.05,1v0a15.83,15.83,0,0,1-1.26,2.5c-1.34-.09-2.37,1.7-1.75,3,2,4.09,6.09,7.17,9.27,10.28,3.56,3.47,7,7.1,9.23,11.56,3.54,6.94,1.15,14.2-3.86,18.87a.79.79,0,0,0-.3.05A26.39,26.39,0,0,1,488,294c-4.86-.77-9.39-1.67-14.32-1.11a83.72,83.72,0,0,0-27.32,8c-8.54,4.19-16,10.62-23.9,15.83-6.68,4.4-15.59,9.09-24.15,9.76a26.91,26.91,0,0,0-4.46-1.72c-.12-.09-.26-.17-.38-.27a33.72,33.72,0,0,1-7.14-9,77.55,77.55,0,0,1-8.3-21.9c-.08-.36-.69-.29-.64.08A71.48,71.48,0,0,0,384,316.91a46.4,46.4,0,0,0,4.08,6.68c-2.42-.35-4.86-.55-7.21-.68l-.31-.13c-.8-6.07-2.07-12.14-3.16-18.11a201.59,201.59,0,0,0-6.41-27,.31.31,0,0,0-.59.16c1.43,8.59,3.07,17.14,4.41,25.73.95,6,1.52,12.15,2.32,18.22a2.17,2.17,0,0,0-2.1,1c-1.45,0-2.9.05-4.33.15,0-.72,0-1.44-.09-2.16a.92.92,0,0,0-1.83,0c0,.78-.06,1.55-.1,2.33-2.41.22-4.8.54-7.2.92a31.75,31.75,0,0,0,3.63-6.37c.1-.19.18-.39.27-.58.95-3,1.9-6,2.69-9,.47-1.78,1.78-6.91.66-9.65l0,.05c-3.3,8.7-5.26,18.19-11.54,25.22-1.08.41-2.25-.07-3.33-.3h0l-.18,0a.43.43,0,0,0-.27,0h-.05c-11.73,2-22.16,2.17-31.54-6.1-7.81-6.9-12.71-16.8-17.27-26-5-10.11-9.75-20.45-17-29.19A33.23,33.23,0,0,0,274,252.78c-5.66-2.27-11.95-2.05-17.8-3.28a40.48,40.48,0,0,1-7.35-8.61c-5.17-8.07-7.55-18.31-4.94-27.64,2.38-3.45,5-6.87,7.06-10.43,8-13.88,1.66-29.32-2.86-43.19a.42.42,0,0,0-.81.23c2.63,9.15,6,18.24,6.12,27.88.1,7.7-3.28,14.06-7.63,20.14-6.75,9.44-14.41,18.6-7.83,30.3a.86.86,0,0,0,.26.3,24.77,24.77,0,0,1-1.15-6.7,19,19,0,0,1,.66-5.42,29,29,0,0,1,4.62-10.77,29.9,29.9,0,0,0-.58,14.33c-.58,6.36,4.14,17.42,10.62,20.27-3.11.79-5.74,3.33-7.41,6.45a25.68,25.68,0,0,0-2.67,9.33c-.32,1.29-.5,2.6-.71,3.91s-.5,2.51-.7,3.78c0,0,0,0,0,0-2.41,7.05-7.64,12.49-10.7,19.18-2.91,6.37-3.14,12.92.38,19.15.31.55,1.29.17,1-.44-1.77-4.22-3.29-8-2.53-12.71.57-3.47,2.86-5.81,4.87-8.49a55.92,55.92,0,0,0,4.71-7.06c0,.05,0,.1,0,.15-1.41,10.64.37,22.08,3,31.89,1.68,6.2,4,12.54,7.72,17.8-3.63-.86-7-2.56-9-5.81-3.81-6.24-3.63-14.8-5.81-21.67a.22.22,0,0,0-.42.11c1.33,7.77-.82,15.79,2,23.35a26.57,26.57,0,0,0,9.14,9.14,28.7,28.7,0,0,0,12.46,3c20.8,2.27,41.22,6.94,61.95,9.67,2.1.27,6.11-5.31,7.72-6.52A67.6,67.6,0,0,1,338.79,338c2.73-1.32,5.74-2.56,8.63-4-2.38,2.29-4.94,4.39-7.35,6.64-4.48,4.19-8,8.88-8.6,15.14,0,.28.38.3.46.07,2.22-6.7,8.31-11.11,13.5-15.49,4.05-3.42,10.16-7.55,11.27-13.1l.39-.46a5.5,5.5,0,0,0,2.57-1c3-.14,5.95-.18,8.92-.17-.22,6.15-.26,12.3-.25,18.45,0,3.45,0,6.89,0,10.34,0,.16,0,.33,0,.49-1.07-1.78-2.12-3.58-3.22-5.33-.9-1.21-2.15-2.57-3.14-2.72-.9,1.68-1.83,3.36-2.74,5-2.86,5.29-5.77,10.54-8.6,15.84-2.55,4.76-5.11,9.54-7.3,14.49-.11.26-.27.63-.43,1.06.46-8.23,1.82-17.25,5.13-24.32.16-.35-.31-.81-.59-.45-7.08,9.06-9.71,22.07-9.73,33.4-1.26,7-2.31,13.2-5.28,19.83-2.6,5.79-5.83,11.63-6.55,18-.06.59.79.62,1,.13a185.15,185.15,0,0,1,9.27-20.33,45.21,45.21,0,0,0,3.06-7.6c1.88,5.76,5.57,10.43,11.17,11A14.26,14.26,0,0,0,353.44,413.85Zm152.35-150a89.84,89.84,0,0,0-14.22-14.16,10.26,10.26,0,0,0,1.69-2.26c1,1.74,2.11,3.42,3.25,5,5.56,7.77,14.61,14.38,16,24.31C511.7,272,508.85,267.59,505.79,263.89Zm-251-10.21c-1.07.75-2.07,1.57-2.92,2.23a14.39,14.39,0,0,0-3.45,3.62A10.66,10.66,0,0,1,254.78,253.68Zm-11.73,36.93c.08,7.81,1.64,15.48,3.54,23.11a76.34,76.34,0,0,0,2,7.69c.3,1.15.59,2.3.88,3.45-2.33-4.62-3.87-10.06-5-13.34a71.6,71.6,0,0,1-3.93-26.76h0a23.25,23.25,0,0,1,2.68-10.35c1.54-3.81,2.61-7.77,3.92-11.68l0-.08a.61.61,0,0,0,1.05.07,19.8,19.8,0,0,1,5.94-5.66c1.1-.73,2.49-1.31,3.75-2a29.18,29.18,0,0,0,3.8,2.31C250.4,264.88,242.92,276.45,243.05,290.61Z"/><path d="M85.68,274.65c-8.09,1.82-13.27-.1-18.76-6-3.93-4.22-8.17-8.3-14.22-8.66a2.43,2.43,0,0,0-1.78.58,2.18,2.18,0,0,0-.38.18,137.82,137.82,0,0,0-16.37,12,16.25,16.25,0,0,0-6,13.9c0,.19.05.39.07.58a9.47,9.47,0,0,0-3.5-.4c-2.82.18-4.31,5.83-5.16,8.06a13.34,13.34,0,0,0,7.11,16.93c.09,0,.23,0,.16-.16-2-2.73-4.08-5.07-5.1-8.36-1.38-4.5.85-9,3.65-12.43a13.07,13.07,0,0,1,3.74,2.46l.15.1a58.88,58.88,0,0,0,3.81,11.24c2.51,5.37,6.77,5.23,11.68,3.19a.14.14,0,0,0-.07-.27c-7.23,1.69-9.13-3-10.19-9-.92-5.14-2.12-10.42-1-15.62.88-4.25,4.84-6.93,8.16-9.24,3.75-2.59,7.7-5,10.79-8.32l.32,0c7.36.06,10.21,5.4,15.55,9.42,5.61,4.23,11.72,3.32,17.5-.09C85.85,274.77,85.78,274.63,85.68,274.65Z"/><path d="M738.81,297.44c-2.33-3.75-5.72-11.49-10.36-15.59-1.54-2.65-3.42-4.93-4.56-7.81a58.23,58.23,0,0,1-2.38-8.91c-.57-2.69-.67-8.18-3.14-10.41a13.75,13.75,0,0,0-.73-1.43,1.8,1.8,0,0,0-.08-.21c-7.93-15.48-30.37-8.66-43.86-8.06a3,3,0,0,0-1.38.42c-10.8-5.91-19.77,2.4-24.11,12.59a7.72,7.72,0,0,0-4.2-.44c-4.18.84-6.21,4.88-7.42,8.58-1.15,3.48-2.17,9-.47,12.43.67,1.35,2.23,2.13,3.46,2.88,2.13,1.29,2.51,2.8,2.77,4.73-9,4.91-18.63,10.18-28.31,13.22-10.23,3.2-21.32,2.24-31.73,4.87-9.88,2.5-19.14,7.55-28,12.5-7.57,4.25-15.1,8.55-22.69,12.76a88.25,88.25,0,0,0,4.86-17.91c2.33-14.71-.8-27.6-7-40.9-4.48-9.56-9.7-18.68-13.87-28.25-.06-.2-.13-.4-.19-.59-.89-3.1-1.41-6.39-2.55-9.41-1.57-13.27-.23-25.58,2.37-38.61,1.69-8.52,3-16.61,2.76-25a130.07,130.07,0,0,0,8.17-25.25c4.07-19.26,1.15-38.46-7.12-56.19a241.88,241.88,0,0,0-27.12-44c-9.25-12.09-20.75-25.88-35.67-30.91C443.39,6.13,429.35,5,415.05,4.38c-7.34-.32-14.76-.15-22.07-.89-7.77-.78-15.54-1.64-23.33-2.32-14.44-1.27-29.1-2-43.47.34a115.1,115.1,0,0,0-33.33,11.06c-20.3,10.2-36.76,26.69-49.48,45.28-13.54,19.8-24.83,44.19-28.06,68.06-1.8,13.38-.29,26.85,3.25,39.81a149.12,149.12,0,0,0,10.76,28.84,80.52,80.52,0,0,1,1,15c-.22,9.45-2.51,18.75-5.3,27.73-5.91,19-15,36.55-18.52,56.24-2.29,13-3.19,25.84,1.67,37.55q-14.11-5.94-28.32-11.64c-12.22-4.94-24.38-10.54-36.87-14.74-9.59-3.23-19.93-3.87-29-8.59-8.77-4.54-10.43-15.34-16.49-22.45a5.76,5.76,0,0,0,2.21-3.06,10.4,10.4,0,0,0-.12-6.5c-1.06-3.23-4.58-7.72-8.15-9.08-.06-7.12-7.21-11.54-13.65-13.21-10.42-2.71-22-1.17-32.28,1.33-9.59,2.33-19.69,6.09-27.14,12.77-4.81,4.31-8.12,13.21-2.52,17.86-.54.15-1.07.32-1.61.5-4.31,1.52-8.06,5.49-10.69,9.09-5,6.85-4.29,13.46-.08,20.5,2.43,4.08,5.56,7.74,7.77,12,1.87,3.54,2.81,7.58,4.34,11.27,2.06,5,5.85,10.28,11.11,11.69a10,10,0,0,0,5.42.52c7.11-.33,11.37-9.31,14.44-14.6a49.64,49.64,0,0,1,3.43-5.36.73.73,0,0,0,.27.21c15.18,7.55,31.71,12.8,47.6,18.64,14.11,5.19,28.17,10.55,42.58,14.81,23,6.8,51.84,12.78,66.31,33.87a2.27,2.27,0,0,0,2.29,1,10.38,10.38,0,0,0,5.83,2.9c6,.94,12.3-.55,18.32-.36,18.54.59,36.85,7.27,52.82,16.39a46.32,46.32,0,0,0,1.16,13.56c-1.58.68-3.18,1.33-4.71,2.13a2.53,2.53,0,0,0-1.19,2.72c-4.51,3.18-8.67,6.81-13.57,9.57-7.17,4-15.17,7.22-23.48,7.05-7.19-.14-15.85-2.16-22,2.63-5.35,4.14-9.68,10-16.06,12.68-11.17,4.63-22.16,9.63-33.57,13.64-8.17,2.87-17.14,5.67-26.07,6.49-.72-.09-1.44-.19-2.15-.34-1.38-.29-2.73-.79-4.11-.44a2.34,2.34,0,0,0-.47-.05c-5,.16-9.24,1.09-14.25-.1-4.62-1.11-9-3.09-13.43-4.83a53.19,53.19,0,0,0-10-3.07,41.66,41.66,0,0,0-5.31-1.16,19.52,19.52,0,0,0-5.66,0,12.2,12.2,0,0,0-2.77.59c-3.63.61-6.76,4.16-9.14,6.67a32.73,32.73,0,0,0-7,11.23c-2.94,7.9,1.7,15.44,9.34,17.32-2.35,4.51-4.76,8.34-4.84,13.87,0,2-.25,4.2-.32,6.4a18.77,18.77,0,0,0-.3,5.39,3.13,3.13,0,0,0,.58,3.09c6.22,7.78,16.72,8.37,25.91,9.36,5.54.6,10.81,3.09,16,4.9a35.6,35.6,0,0,0,6.45,1.91,17.79,17.79,0,0,0-2.53,8.32c-.5,7.6,5.71,11.83,12.5,12.66,8,1,16.31-2.46,22.43-7.36,4.74-3.79,10.26-12.93,7.79-19.44l0,0c8.44-8.74,14.76-19.58,21.31-30.16a145.16,145.16,0,0,1,22-14.7c14.17-7.84,29.1-15.38,44.24-21.14,10.23-3.89,20.94-6.38,31.13-10.42,5.75-2.28,14.48-5.8,18.63-11.53a11.41,11.41,0,0,0,2.24.48h.09a10.82,10.82,0,0,0,4.69,8.2c2.44,1.78,8,3,11,1.12,6.62,4.27,13.54,8.92,21.19,5.89a8.83,8.83,0,0,0,.67,2.42c1.32,3.12,5.43,5,8.36,6.05,3.25,1.21,12.9,2.49,16.87-.54a2.7,2.7,0,0,0,1.5,1.32,39,39,0,0,0,16.55,2.8c4.53-.36,10.32-2.92,11.83-7.46a17.19,17.19,0,0,0,12-.47,18.34,18.34,0,0,0,8-6.11,9.34,9.34,0,0,0,1.92-3.48,9.69,9.69,0,0,0,1.11-5c.55,1.57.94,3.23,1.57,4.74a1.87,1.87,0,0,0,2.26,1.13.66.66,0,0,0,.48,0,15.39,15.39,0,0,0,4.28-2.63c1.26-1,2.69-2.06,3.24-3.6.13-.18.26-.37.38-.56a23.48,23.48,0,0,0,1.47-2.74c14.41,9,32.52,12.17,49,14.61a150.9,150.9,0,0,1,29.32,7.62c5.34,1.94,10.6,4.13,15.83,6.35,3.28,1.39,6.64,3.3,10.13,4.27a10.65,10.65,0,0,0,2.16,1c4.34,8.44,7.77,17.34,11.56,26,3.29,7.52,8.32,19.44,16.41,23.07-.81,8.53-1.87,17.53,5.26,23.75,9,7.85,21.89,6.42,32.92,7.13a2.94,2.94,0,0,0,2.8-2.13c2.17-6.48,1.76-13.09,1.46-19.77,2.9-1.12,6.22-4.5,7.65-5.45a56.79,56.79,0,0,1,18.44-7.45c5.29-1.25,10.85-1.45,16.18-2.46,2.81-1.76,3.61-6.22,3.35-10.29l0,0a49.79,49.79,0,0,0-2.38-8,35.8,35.8,0,0,0-3.48-7.15c7.7-11.16,8.34-26-3.4-35-6.16-4.73-13.45-6-21.06-5.68a28.79,28.79,0,0,0-6.23,1.05c-6,.59-11.93,2.1-18,2.82a1.75,1.75,0,0,0-.33,0c-26.81-1.18-53.84-11.15-77.56-23.22-5.08-2.59-9.7-5.49-15.27-6.95-5.27-1.38-10.87-1.34-16.26-1.7-14.38-1-27.68-7.31-41.5-10.94a32.36,32.36,0,0,0,1.74-10.76,1,1,0,0,0,.16-.49,30.47,30.47,0,0,0-.38-6.61c-.2-1.44-.29-3-.61-4.41a1.58,1.58,0,0,0,0-2.44c-.2-.17-.38-.36-.57-.53A147.15,147.15,0,0,1,485.38,390a96.85,96.85,0,0,1,19.73-1.94,99.44,99.44,0,0,1,13.4,1.41l.46.17a10.17,10.17,0,0,1,2.73.54,6.89,6.89,0,0,0,1.93.34,10,10,0,0,0,1.31-.55c4.06-2.34,6.51-4.31,7.74-9.15a35.58,35.58,0,0,0,16-7c2.14-1.74,6.55-6.63,5.61-10,17.54-5.09,34.78-11.34,52.57-15.59,11.85-2.83,23.73-5.58,35.39-9.16,10.05-3.08,20.88-6.88,29.24-13.44a3.28,3.28,0,0,0,.45-.47c1.19-.72,2.38-1.46,3.59-2.13,5.41-3,9.22.41,13.19,4,4.25,3.82,11,9.65,17,8,6.66,5.47,19.66-9.56,22.84-13.51,1.92-2.38,5.72-7.36,7.68-12.23l.36-.65c1.19-2.2,3.69-6.74,2.59-9.61A2.92,2.92,0,0,0,738.81,297.44ZM368.72,9.17c8.71.75,17.41,1.79,26,2.65,9.77,1,19.74.54,29.55,1.23,4.37.31,8.77.83,13.16,1.5,4.24,1.16,8.43,2.58,12.51,4.07a97.13,97.13,0,0,1,14.13,6.8L467,27.56c2.44,2.34,4.82,4.75,7.44,6.85A140.8,140.8,0,0,1,485.37,47.3C494.76,59.9,502.7,73.6,510,87.48a80.6,80.6,0,0,1,8.15,54c-2.91,14.74-9.78,27.63-15.92,41-.57-5.53-1.36-10.79-1.6-15-.46-8.24.55-16.43-.41-24.68a36.11,36.11,0,0,0-2.75-10.83,11.69,11.69,0,0,0-2.79-3.78c-1.67-1.56-1.63,0-1.41-2.24.79-8.35-1.41-17.91-3.8-25.83-.63-2.09-1.37-5.74-3-7.32-2-1.87-5.19-2.85-7.6-4-5.29-2.45-12-6.9-18-5.67-2.63.54-5.15,1.92-7.64,2.88-2.83,1.1-5.19-2-7.46-3.44A32.88,32.88,0,0,1,440,78.8c-1.55-1.42-3.66-3.54-5.8-4-2.71-.56-5.28-.09-8,.22-3.9.45-7-2.07-9.93-4.3-5-3.8-9.94-5.1-16.17-5.44a26.5,26.5,0,0,0-8.39,1c-.36.1-2.4,1.08-2.69.74a20.94,20.94,0,0,0-2.51-2.56,16,16,0,0,0-8.1-3.41,18.65,18.65,0,0,1,6.13-5.88,1.71,1.71,0,0,0-.4-3.11c-6.85-1.47-13.8-3.69-17.82-9.75-5.3-8,5-11.38,10.36-14.9a2,2,0,0,0,.4-3.1,61.56,61.56,0,0,1-7.46-8.43C367.73,13.13,367.72,11.07,368.72,9.17ZM226.54,175c-1.14-3.49-2.17-7-3-10.62a104.3,104.3,0,0,1-.62-43.55c4.75-23.57,17.27-47.38,32-66.24,14.3-18.36,33-33.09,55.13-40.76,17.53-6.08,35.86-6.33,54.16-5a7.65,7.65,0,0,0-.19,3.58c1,5.17,4.84,9.3,8.53,13-6.22,3.63-14.14,7.54-11,15.85,2.87,7.72,10.63,11.33,18.2,13.33a25.85,25.85,0,0,0-5,6.23c-7.68-.14-15.61,2.67-22.91,4.38-9,2.1-19.66,4.48-25.26-4.89a1,1,0,0,0-1.48-.2C306.12,78.93,275.21,76.75,258,97.9c-9.24,11.34-13.73,25-20.16,37.86-2.45,4.91-6,10.09-6.42,15.73-.41,5.93,2.43,10.28,6.62,14-4.24,2.12-9.17,4.67-11.3,9C226.65,174.67,226.6,174.81,226.54,175Zm2,5.82a18.65,18.65,0,0,0,3.56,2.31,10.9,10.9,0,0,0-1.6,3C229.86,184.34,229.2,182.56,228.56,180.78ZM287.09,400c-.21.27-.45.56-.69.88a126.79,126.79,0,0,0-42.17-14.7,85.61,85.61,0,0,0-21.15-.72c-5.36.51-9.71,1.07-13.41-2.36-14.53-19.63-40.6-26.43-62.94-32.88-14.3-4.13-28.37-8.91-42.42-13.78-17.65-6.11-35.11-13.57-53.09-18.61a14.23,14.23,0,0,1,2.94-2.46c5.13-3.15,9.61,1.37,13.43,4.35,3.51,2.74,7.64,5.73,12.25,6.12,2.84.23,5.67-.09,8.5.13,4.3.32,8.49,1.61,12.65,2.67,12.25,3.13,25.73,11.57,38.75,9.2a.14.14,0,0,0,0-.27c-6.85-1.56-13.56-2.89-20.23-5.2-7-2.45-13.84-5.57-20.9-7.91A90.69,90.69,0,0,0,88.89,322c-3.24-.69-6.79-.15-9.88-1.46-5.39-2.29-9.52-6.77-14.32-10-7-4.71-15.24-.24-19.63,5.67-2.49,3.35-4.43,7.06-6.62,10.61a22.21,22.21,0,0,1-7.67,7.45c-2.9-1.12-5.52-1.87-7.56-4.62s-3.05-6-4.14-9.09c-2.58-7.29-6.68-13-10.78-19.46-1.75-2.79-3.36-5.92-2.8-9.31.74-4.55,4.9-8.17,8.1-11.11,2.61-2.4,6.25-3.09,9.22-4.89s4-4.88,5.1-7.94c.08-.24-.26-.36-.39-.16a11.25,11.25,0,0,1-6.33,4.67,2,2,0,0,0-.07-.23c-.77-2.1-2.26-4.25-1.72-6.55.61-2.6,2.93-4.64,4.87-6.26,6.33-5.29,15-8.15,22.81-10.25,11.86-3.17,35.1-7.68,40.69,7a2.19,2.19,0,0,0,.46,2.17c1.1,1.12,2.29,1.21,3.57,2A13.35,13.35,0,0,1,95.49,264a7.48,7.48,0,0,1,1.2,5.14,6.47,6.47,0,0,1-2.63,4.93l.22.3,0,.05.09.13a1,1,0,0,1,.21.16,4.3,4.3,0,0,1,.43.62c5.14,7.49,7.3,17.28,14.76,22.84,7.94,5.92,19,7.15,28.29,9.71,12,3.3,23.63,9.43,35.12,14.16,13,5.38,26.07,10.79,39,16.44q.47.69,1,1.38c8.22,11.18,20.11,19,27.37,30.94,0,0,0,.06,0,.09a19.63,19.63,0,0,0,1.9,2.38,5.89,5.89,0,0,0,1.21.94c7.51.4,14.44-2.33,21.3-5.15,6.11-2.5,11.95-4.69,18.21-5.79,3.14.38,6.18,1,8.57,3.37,2.59,2.62,3.12,6.9,3.19,10.38.14,7.41-2.53,14.45-6,20.88A17.35,17.35,0,0,0,287.09,400ZM243.8,474.12a358.81,358.81,0,0,0-40.67,20.58,81.21,81.21,0,0,0-9.86,6.83c7.61-11.08,16.44-20.91,29.55-26.36a.45.45,0,0,0-.23-.86c-19.19,4.66-29,21.46-39.55,37.38a61.16,61.16,0,0,0-5.5,8v0c-4.81,6.62-10.06,12.66-16.6,17.05a4.25,4.25,0,0,0-.6.49,5.06,5.06,0,0,0-1.54,3.49v.06a9.69,9.69,0,0,0-.06,1.06.34.34,0,0,0,0,.18c-.36,2.42.3,5-.38,7.46a16,16,0,0,1-4.92,7.24A26.44,26.44,0,0,1,137,563.34c-5.18.15-9.27-2.14-9-7.7.53-10.72,10.32-15.66,16.86-22.78a.16.16,0,0,0-.23-.23c-4.61,3.79-10.13,6.38-14.52,9.87-2.21-1.89-5.36-1.88-8.23-2.81-4.85-1.58-9.47-3.69-14.43-5-8.29-2.12-17.51-.64-24.74-5.68a1.85,1.85,0,0,0,.07-.41c.73-3.1.12-6.86.08-10A22.77,22.77,0,0,1,83,513c.65-2.76,2.12-5.13,3.1-7.74a3.23,3.23,0,0,0,.93,0c-.23.16,1.85.2,2.25.16,1.73-.14,3.48-.25,5.22-.37,3.87-.26,7.77-.45,11.61-1,5.19-.78,21-8.24,18.84-15.34a.29.29,0,0,0-.47-.13c-1.25,1.26-2,2.84-3.28,4.11-2.33,2.33-5.74,3.83-8.73,5.06a27.77,27.77,0,0,1-12,2c-3-.08-11.33-2.11-15-.05h0a2.06,2.06,0,0,1-1.88-.11h0c-2.46-1.5-5.06-2.9-6.22-5.75s0-6.06,1.24-8.58a30.52,30.52,0,0,1,6.25-8.17c1.54-1.52,3.5-2.66,5-4.2,8.91-1.21,17.49,2.73,25.52,6.09,6.62,2.77,16.48,6.36,23.55,2.86,9.72,2.2,20.59-.82,29.81-3.61,13.06-4,25.51-9.59,38.06-14.87,6.37-2.69,11.12-7,16.15-11.63,7.53-7,17.47-3.13,26.75-4,7.3-.64,14.66-4.32,21.06-7.62,5-2.57,11.18-5.9,15.29-10.27a5.82,5.82,0,0,0,3.12-.6,110,110,0,0,0,3.19,11.06c1.12,4,2.77,8,5.32,10.77C283.44,464.43,261.28,466.59,243.8,474.12ZM307,447c-.09.6-.17,1.21-.22,1.83a4.86,4.86,0,0,0,0,.76.48.48,0,0,1,0,.12c0,.1,0,.2,0,.3h-.13c-.22.3-.69.4-.88,0a8.25,8.25,0,0,0-2.23-3,1.62,1.62,0,0,0-2.3.34c-.29.35-.59.69-.89,1l-.09-.1c-1.39-4.92-3.55-9.72-5.42-14.58.36-5.46,1.78-10.57,5.37-14.85a20.11,20.11,0,0,1,6,3.52,9.46,9.46,0,0,1,.94,1,1.43,1.43,0,0,1,.15.11,9.67,9.67,0,0,1,2.38,3.2,1,1,0,0,1,0,.16,15.76,15.76,0,0,1,1.06,4.18.78.78,0,0,1-.09.53.24.24,0,0,0,0,.08C308,435.83,306.91,441.68,307,447Zm35.9,17.42a.46.46,0,0,0-.57,0,2.4,2.4,0,0,0-.88.27c-7.19,3.71-13.47-1.38-19.73-4.72a2,2,0,0,0-2.18.11c-2.21-.18-4.52.67-6.78-.29-2.76-1.18-4-3.89-4.24-6.69,0-.14,0-.27,0-.41,0-.31,0-.61,0-.92a1.48,1.48,0,0,0-.09-.57l0-.53a16.46,16.46,0,0,1,.09-2.43c.36-2.31.71-4.61,1.15-6.91.86-4.57,3.09-8.13,5.25-12.09,3.43,1.78,5.58,6.08,7.81,9.12a1.31,1.31,0,0,0,.38.33c-2.47,4.32-2.67,9.53-2.17,14.42a.12.12,0,0,0,.23,0c.52-4.33,1.29-9.39,3.76-13.06,2.92-4.33,6.93-3.89,11.17-3.89,6.22,8.88,6.34,18,7.39,28.39A2.3,2.3,0,0,0,342.94,464.38Zm.77-14.74A39,39,0,0,0,339.18,436l.06,0c-.64-1-1.08-2.07-2.22-2.68-.24-.12-.49-.23-.74-.33a12.39,12.39,0,0,0-11.77,3.7,20.31,20.31,0,0,0-6-7.82,6.92,6.92,0,0,0-5.47-1.65,14.66,14.66,0,0,0-1.15-2,.91.91,0,0,0-.17-.17,6,6,0,0,0-.6-.73,16.71,16.71,0,0,0-2.58-3.28,15.56,15.56,0,0,0-6.69-3.92,3.24,3.24,0,0,0-2.62,1.11s-.07.05-.11.09a21.5,21.5,0,0,0-5,9.87c-.13-1.15-.23-2.18-.32-3a121.2,121.2,0,0,1,.22-29.36,41.33,41.33,0,0,0,3.66-22.67,14.09,14.09,0,0,0-4.14-8.27,20.89,20.89,0,0,0,4.85-1.17c.25.25.51.52.78.82,3,3.32,5.14,7.93,6.51,12.14,3.42,10.49,1.44,23.77-2.71,33.76-.05.12.16.21.22.09,6.36-11.75,8.95-25.89,4.31-38.61a54.36,54.36,0,0,0-2.87-6.76,29.86,29.86,0,0,1,4.54,2.39c6.16,4,9.12,10.67,14,15.81,1.58,1.66,4.16-.06,3.68-2.14-2-8.63-8.21-15.38-15.82-19.66a44.75,44.75,0,0,1,4.51.51c7.25,1.23,12.69,5,17.7,10.21a.68.68,0,0,0,1.07-.82c-3.84-6.35-11.07-10.15-18-12.25a36.15,36.15,0,0,0-14.14-1.35,38.29,38.29,0,0,0-6.49-1.31,53,53,0,0,0-25,3.67c-7.67,3-15.46,7.55-23.73,8.81a3.33,3.33,0,0,0-.36-.89c-7-11.89-18.17-19.91-26.9-30.35-11.8-14.11-9.2-32.67-6.1-49.52,3.46-18.84,11.15-36.18,16.08-54.62a98.45,98.45,0,0,0,3.49-25.6c0-2.3-.1-4.74-.31-7.22,1,1.65,2.09,3.27,3.22,4.83.1.18.2.35.29.53a5.16,5.16,0,0,1,.48,4.39,1.67,1.67,0,0,1-.16.12.11.11,0,1,0,.11.2c1.89-.92,1.85-2.72,1.31-4.5a7.22,7.22,0,0,0-1.13-2.89l-.09-.21c-.34-.82-.73-1.65-1.14-2.48-1.16-3.67-2.46-7.28-3.79-10.88a9,9,0,0,1,2.5-6.42,1,1,0,0,0-.2-1.59c-2.28-1.06-5.64-2.36-6-5.31-.21-1.83,1.84-3.51,3-4.58,2.57-2.29,5.86-3.88,8.9-5.43a.94.94,0,0,0,.19-1.47c-6.45-5.34-8.65-11.29-5.65-19.19,2.17-5.74,5.43-11.11,7.83-16.78,5.46-12.89,11-27.09,21.75-36.53,9.1-8,21.28-11.32,32.52-15.09,10.42-3.5,20.45-7.85,28.66-15.27,10.58,16.76,32.15.27,48.34.11a62.13,62.13,0,0,0-4.21,10.4c-1.51,4.8-3.88,13.75.08,18.19-1.62,2.33-2.77,4.92-5.05,6.76a1.52,1.52,0,0,0,0,2.12,28.9,28.9,0,0,0,12.89,8.25c-3.63,2.06-6.95,5.09-5.84,9.61,1.52,6.18,8.65,8.79,6,16.07,0,.05.06.09.08,0,1.56-3.68.54-7.22-1-10.77-.88-2-2.21-3.81-2.83-6-1.24-4.26,4.49-6.74,7.37-8.3a1.18,1.18,0,0,0-.28-2.13,21.45,21.45,0,0,1-13.24-7.74c2-2.11,3.07-4.79,5-7.07a1.54,1.54,0,0,0-.31-2.37c-4.32-3-.63-13.25.59-16.94a49.07,49.07,0,0,1,4.39-9.9,14.74,14.74,0,0,1,10.14,6.79,1.3,1.3,0,0,0,1.46.6c8.6-2.89,16.58-3.57,24,2.71,2.37,2,4.93,4.16,7.83,5.33,3.15,1.26,6,.77,9.34.45,3.92-.38,6.2,2.51,8.79,5,2.11,2,4.57,2.66,6.87,4.33,2.74,2,3.94,3.51,7.31,2.64,3.06-.79,7-4.15,10.15-3.69,3.46.51,7.16,2.53,10.44,3.7,3,1.08,9.67,2.26,11.67,4.87,3.07,4,3.77,10.52,4.62,15.33.93,5.18,2.17,11.63.42,16.78a1.31,1.31,0,0,0,.59,1.46c6.41,4,6.38,14.15,6.42,20.8,0,6.24-.82,12.46-.61,18.69.2,6,1.7,14.45,1.71,22.44a.42.42,0,0,0,0,.1,22.74,22.74,0,0,1-.13,2.85c0,.17,0,.33,0,.5a.56.56,0,0,1,0,.08c0,.23,0,.45,0,.67a16.16,16.16,0,0,1-.87,5.6c-1.18,4.75-3.56,8.77-8,11.23a2.72,2.72,0,0,0-.37.27,5.55,5.55,0,0,0-1.46.95.37.37,0,0,0,0,.52.34.34,0,0,0,0,.1,1.77,1.77,0,0,0-.06.42c.12,7.94,1.87,18.89,7.95,24.59.09.09.28,0,.23-.13a67,67,0,0,1-5-22.64,2.58,2.58,0,0,0,1-.23c8.2-3.83,10.67-12.09,11-21.18a110.19,110.19,0,0,0,11.05-17c-1.44,6.41-3.29,12.75-4.76,19.08-2.28,9.84-3.34,19.89-1.91,29.81a31.39,31.39,0,0,0,.23,3.61,72.55,72.55,0,0,0,1.89,9.11,58,58,0,0,0,3.63,10.3c2,5.23,4.41,10.38,6.87,15.57,6.3,13.34,11.54,25.53,10.5,40.53-1.68,24.11-17.65,51.05-40.22,61.19a29.71,29.71,0,0,0-4.29,1.38,101.77,101.77,0,0,0-23.88-6.54A105.28,105.28,0,0,0,437.58,354c-13.8-2.3-25.35,3.53-32.16,15.6-.18.31.28.7.52.4,4.3-5.52,9.53-10.08,16.28-12.23,5.74-1.83,12.38-1,18.11.35a59.47,59.47,0,0,1,7.38,2.27c-2.76,0-5.49,0-8.14.25-14.77,1.17-34.31,9.18-30.36,27.26.1.47.92.51,1,0,1-7.55,3.36-14.27,10.26-18.27,4.7-2.73,10.69-3.41,16.41-3.44a23.3,23.3,0,0,0-3.73,4.27c-3,4.28-4.15,9.78-4.69,14.88-.73,6.91-.4,21.3,7.89,23.85a.1.1,0,0,0,.1-.16c-5.63-5.93-6.64-14.91-6.15-22.68a33.35,33.35,0,0,1,3.63-13.41c2.08-3.93,4.89-4.86,8.47-6.61l1,.05c1.64.08,3.3.2,5,.33-4.49,3.87-6.51,10.44-7.15,16.12a26.62,26.62,0,0,0,5.17,19c-4.83,1.45-7.57,7.5-8.31,12.67a1,1,0,0,1,0,.25,1.79,1.79,0,0,1-.84,1.64.52.52,0,0,1-.2.09v0c-2.18.95-3.92,2.95-5.42,4.73a13,13,0,0,0-2.33,4.07,14.07,14.07,0,0,0-1.57.21c-.33,0-.65.09-1,.16a7.66,7.66,0,0,0-1.9.47c-2.48.56-5.15,3-6.5,4.52a14.89,14.89,0,0,0-3.84,8.47,39,39,0,0,0-2.32-3.44l-.13-.17a7,7,0,0,0-3-1.6,13.28,13.28,0,0,0-4.07-.12l-.34.12a1.2,1.2,0,0,0-.7.26c-5.57,2.34-9.56,8.75-10.9,14.7-1.26-3-3-6-5.39-7.62a1.09,1.09,0,0,0-.56-.18,5.1,5.1,0,0,0-3.66-1c-3.21-.15-6.77,1.54-9.06,3.39a16,16,0,0,0-5.67,8.83,22.22,22.22,0,0,0-6.74-9.19,13.33,13.33,0,0,0-3.81-1.63l-.05,0C352.62,440.05,344.67,444.17,343.71,449.64Zm98.48-29.27a10.29,10.29,0,0,0-2.05-3.65l-.12-.19a.81.81,0,0,0-.29-.41l0-.05c1.67-4.15,2.63-9.6,6.71-11.05a1.48,1.48,0,0,0,.12.41c2.85,6,2,18-2.47,23.77A18.49,18.49,0,0,0,442.19,420.37Zm-10.56,28a11.44,11.44,0,0,1-1,4.34,18.4,18.4,0,0,1-.79,2c-.92,2.69-2.32,5.45-5,6.66a19.33,19.33,0,0,0-4-7.82,1.69,1.69,0,0,0-2.8.74,42.46,42.46,0,0,1-2,5.3l-.33.52c-.77,1.22-1.53,2.43-2.31,3.65-1.6,1.68-2.94,3.6-5.14,4.87-3.51,2-8.26,2-12.1,1.18a2,2,0,0,0-.77,0,12.45,12.45,0,0,1-3.75,3.65,18.11,18.11,0,0,1-2,1.34l-.07.05a9.15,9.15,0,0,1-3.84,1.37h-.06a23.47,23.47,0,0,1-3.64.17,39.73,39.73,0,0,1-6.31-.79c-1.14-.33-2.29-.66-3.4-1.08-1.28-.48-2.82-1.59-4.23-1.3h0c-1.75-.69-3.61.29-5.33.72a20.73,20.73,0,0,1-7.77.28,13.25,13.25,0,0,1-1.46-.31.75.75,0,0,1-.41,0,6,6,0,0,1-.58-.26,16.06,16.06,0,0,1-1.73-.66c-1.5-.32-2.77-1.79-3.81-2.79-1.88-1.81-3.31-3.7-3.08-6.43,0-.07,0-.12.05-.18a69.44,69.44,0,0,0,.25-7.36c.05-.3.11-.6.17-.9a17.6,17.6,0,0,1,1.22-5.2,1.6,1.6,0,0,1,.05-.21h0a1,1,0,0,1,.1-.18l-.05-.06c2.27-4.11,7.5-5.55,12.21-5.21a1.54,1.54,0,0,0,.19.17c4,2.91,7.37,5.95,9.19,10.61,1.69,4.33,1.8,9.27,2.1,13.86,0,.29.48.39.54.07a34,34,0,0,0-.26-13.93,18.62,18.62,0,0,1,6.93-8.9c2.54-1.77,5.11-1.87,7.84-2.21l.09,0c1.9-.34,4,2.58,4.8,3.92a.41.41,0,0,1,.05.09,27.87,27.87,0,0,1,3.59,6.75,25.22,25.22,0,0,1,1.09,3.46q.38,1.39.66,2.82a.82.82,0,0,1,0,.42c.28,1.81.47,3.64.7,5.47,0,.28.47.4.54.07,1-5,.11-9.77-1.49-14.58-.15-.45-.32-.93-.49-1.41a46.72,46.72,0,0,1,4-8.07c2-3.14,4.69-4.73,7.58-6.49h.08a3.12,3.12,0,0,1,2.43-.28,1.49,1.49,0,0,1,1.3.59,3.07,3.07,0,0,1,.89,1,19.14,19.14,0,0,1,2.26,2.47c2,2.64,3.67,5.49,5.53,8.21.17.25.65.19.62-.17a13.76,13.76,0,0,0-1.92-5.37c-.37-.7-.77-1.42-1.17-2.14,1.18-3.07,2.23-6.06,4.46-8.57a13.16,13.16,0,0,1,3.89-2.89c1.31-.68,2.49-.66,3.46-1.62,4.22,6.77,4.77,13,4.15,20.31A.61.61,0,0,1,431.63,448.41Zm2.47-1.6c1.22-6.7.09-14.79-4-19.62a18.06,18.06,0,0,1,2.8-4.75,13.82,13.82,0,0,1,4.63-3.12c1,2.34,2.14,4.63,3.05,7a22.39,22.39,0,0,1,1,4.93l0,0a15.9,15.9,0,0,1-2.89,11.7,1,1,0,0,1-.3.25A9.88,9.88,0,0,1,434.1,446.81Zm55.7-2.76c5.78.78,11.61.72,17.31,2.13,6.24,1.54,11.76,5.62,17.45,8.49,23.78,12,50.34,21.63,77.14,22.85a3.92,3.92,0,0,0,1.55-.24c4.16.69,8.6-.22,12.66-1.41,6.77-2,13.08-3.38,20.07-1.49,12.61,3.4,15.61,16.48,9.44,26.47-.18-.15-.36-.32-.55-.47-4.77-3.67-11.1-4.8-17-4.3a33.27,33.27,0,0,1-21.55-5.35c-1.29-.82-2.42,1.18-1.19,2a34,34,0,0,0,15.65,6.17c5.87.66,11.45,1.67,16.73,4.49,5,2.68,8,7.22,10,12.44,1.19,3.23,1.48,6.78,2.43,10a95.24,95.24,0,0,0-21.6,4.86,49.14,49.14,0,0,0-17,9.62,22.82,22.82,0,0,0-2,2.38,2.43,2.43,0,0,0-1,0c-5.67-4.67-11.27-9-18.49-11.13a.16.16,0,0,0-.13.29,81,81,0,0,1,16.94,14.52c0,5.77.17,11.65-1.7,17.14-8.55-1.13-17.07-.49-24.8-5.2-7.46-4.55-4.85-14.24-5.36-21.6a3.28,3.28,0,0,0-.12-.72,17.6,17.6,0,0,1-3.2-2.25,19.65,19.65,0,0,1-5.36-4.83c-.44-.61-.85-1.23-1.24-1.86a27.78,27.78,0,0,1-2.17-3,112.56,112.56,0,0,1-7-13.76c-2.93-6.51-5.66-13.16-9.69-19a90.35,90.35,0,0,1,11.64,5.83c6.19,3.59,14.61,8.67,17.13,15.81a1.33,1.33,0,0,0,.11.24c-.84-5-4.32-9.12-8.08-12.73-1.92-1.42-3.9-2.72-5.76-3.93-.22-.14-.46-.27-.68-.42h0c-3.81-3.79-8.55-7.77-13.67-10.21a25,25,0,0,0-5.21-2.56c-3-1.91-6.71-3-10-4.41-4.65-2-9.31-3.88-14-5.69a151.77,151.77,0,0,0-30.87-8.51c-9.37-1.47-18.72-2.66-27.94-4.91-8-1.95-15.5-5-23.12-7.89a10.31,10.31,0,0,0,.27-2c6.48-1.74,8.54-8.34,9.89-14.56a2.65,2.65,0,0,0,1.11-.7,16.36,16.36,0,0,0,2.56-3.53C462.5,436.19,475.74,442.16,489.8,444.05ZM731.14,307a56.16,56.16,0,0,1-7.43,11c-3.45,4-8.42,9.8-14,10.84a2.14,2.14,0,0,0-2-.82c-4.87.64-7.32.73-11.4-2.48-3.52-2.78-6.64-6-10.65-8.13a11.76,11.76,0,0,0-10.56-.33c-6.21,2.87-10.39,7-17.46,7.76-6.39.68-12.68.51-19,1.62a215.5,215.5,0,0,0-22.47,5.27,284.8,284.8,0,0,0-39.53,14.83c-.23.1-.06.44.16.39,14.15-3.47,27.85-8.59,42-12.27A170,170,0,0,1,641,330.39a78.91,78.91,0,0,1,9-.41c-14.86,5.61-30.34,9.06-46,13.23-25.78,6.87-50.28,17.36-75.35,26.31a.23.23,0,0,0,.13.45c6.89-1.25,13.68-2.9,20.42-4.75l-.12.45c-.66,2.37-3.51,4.25-5.39,5.51a34.57,34.57,0,0,1-13.61,5.26,2.32,2.32,0,0,0-1.67,1.67,15,15,0,0,1-.82,3,11.41,11.41,0,0,1-3.51,3.7c-.26.12-.53.24-.81.34-11.31-4.16-26-2.32-37.48-.19A115.07,115.07,0,0,0,449,399.1c-7.11-9.74-4.25-23.92,4.45-32a122.44,122.44,0,0,1,16.31,2.79A63.84,63.84,0,0,0,476,372c1.82,1.16,4,1.78,5.88,2.88a8.5,8.5,0,0,0,5.65,1.51,10.85,10.85,0,0,0,4.77-2.12,45.9,45.9,0,0,0,7.47-4.69l1.45-1.06c12.48-8.17,22.22-20.5,28.45-34.28,8.64-2.47,16.52-7,24.4-11.3,10.06-5.49,20.22-10.59,31.4-13.38,10.57-2.63,21.53-1.7,32-4.95,4.92-1.52,9.78-4.35,14.43-6.55,5.17-2.45,10.26-5,15.26-7.8a2.08,2.08,0,0,0,.38-.25c.79-2.83.11-6-.82-8.92a8.58,8.58,0,0,0-1.06-1.72,16.54,16.54,0,0,0-3.15-3c-.25-.18-.49-.36-.72-.55,0-.14,0-.3-.06-.49a19.45,19.45,0,0,1,1.87-9.82c2-4.08,4.59.71,7.51,1.23a2.14,2.14,0,0,0,2.67-2,6.6,6.6,0,0,0-1.55-3.8c3.89-7.84,9.77-16.14,19.12-9.93a2.3,2.3,0,0,0,1.74.41c2.65.34,5.25-.59,7.86-1.12l.16,0c4.3-.25,8.59-.65,12.9-.72,6.48-.12,14.5.4,17.81,6.86a2.8,2.8,0,0,0,.3.48q.33,1,.63,2.07a13.4,13.4,0,0,0,.61,2.13c.59,2.73,1.24,5.45,1.64,8.22.48,3.29,1.26,6.93,3.38,9.52a21.47,21.47,0,0,1-3.93.52,12.61,12.61,0,0,0-2.38-4.54c-1.64-1.91-3.8-3.14-5.63-4.83a1.09,1.09,0,0,0-1.7,1.31c2.06,3.78,5,6.69,5.69,11.07a2.33,2.33,0,0,0,2.24,1.71,23.28,23.28,0,0,0,8.13-.74c2.35,2.05,4.91,3.67,6.72,6.51,2.15,3.37,3.65,7.1,5.84,10.44C733.54,302.47,731.94,305.46,731.14,307Z"/><path d="M709.1,288.36a3,3,0,0,0-1.43-.31c0-8.48-6.65-18-15.28-18.13-4.53-.06-9.22,2.19-13.43,3.64-4.77,1.64-9.5,3.47-14.45,4.48a.73.73,0,0,0,.19,1.43c7.93-.63,15.1-5.26,23-5.41,3.76-.07,7.49.28,10.31,3,4.22,4.1,3.51,10.67,6.42,15.42h0c-.16,6.78-2,13.83-9.78,15.07-.22,0-.14.36.05.37,8.39.61,11.8-7,12.52-14.43,8.41,2.88,12.89,17.57,2.29,20.54-.76.22-.64,1.53.19,1.43C724.05,313.79,719,292.94,709.1,288.36Z"/><path d="M502.25,327.62c-7.18,5.81-12.76,13.35-20.72,17.8h-.1c-10,1.66-19.32.64-29.35,0a45,45,0,0,0-13.75.89c-5.18,1.25-9.86,2.76-15.29,2.64a.18.18,0,0,0-.09.33c3.84,1.84,7.43,1.44,11.53.66a64.16,64.16,0,0,1,17.6-1.13c7.24.56,14.25,1.7,21.2.88a37,37,0,0,1-5.59,1.71.06.06,0,0,0,0,.12c3.29,0,6.37-.89,9.62-1a10,10,0,0,0,5.83-2.52,44.62,44.62,0,0,0,6.4-5.19c4.87-4.53,8.89-9.68,12.95-14.88A.18.18,0,0,0,502.25,327.62Z"/><path d="M516.87,324.36C514.23,331.83,512,338.69,507,345c-.05.07,0,.18.1.12,6.19-4.22,9.81-13.4,10.13-20.73C517.22,324.2,516.93,324.19,516.87,324.36Z"/><path d="M376.69,419.82c-4.69,2.57-6.38,8.21-7.19,13.63-.8-4.83-1.72-9.7-4.06-13.94a.47.47,0,0,0-.85.36c2,6.64,3,13.32,4.25,20.11.2,1.07,1.65.68,1.75-.24a70.82,70.82,0,0,1,1.53-9.62c.95-3.82,3-6.25,5.4-9.23A.69.69,0,0,0,376.69,419.82Z"/><path d="M356.17,420.07c-5,2.94-7.51,9.37-8.25,14.88-.08.59.81.85.9.25.89-5.89,3.6-10.41,7.83-14.51A.4.4,0,0,0,356.17,420.07Z"/><path d="M387.37,420.75c-.32-.4-.87,0-.78.45.54,2.68,2.35,5.07,3.65,7.44a24.12,24.12,0,0,1,3.21,10.44c0,.27.45.36.5.07a14.06,14.06,0,0,0-1-8.11C391.41,427.62,389.69,423.68,387.37,420.75Z"/><path d="M323.08,390.41c.3,5.6.33,10.24-2.46,15.28-2.31,4.18-5.7,7.6-7.72,12-.07.15.12.33.25.18,6.93-7.63,14.42-16.62,11.16-27.6C324.11,389.59,323,389.69,323.08,390.41Z"/><path d="M425.44,418.87a.53.53,0,0,0,.64-.83c-4.79-4.73-9-9.15-9.92-16.08-.71-5.32.27-10.91.68-16.22.05-.61-.87-.58-.94,0C414.31,398.78,412.53,411.07,425.44,418.87Z"/></svg>