<svg id="Layer_1" data-name="Layer 1" xmlns="http://www.w3.org/2000/svg" viewBox="0 0 175.21 71.75"><title>threeStars</title><path d="M155.62,20.49l3.26,16.37a.83.83,0,0,0,.49.6l15.33,6.6a.83.83,0,0,1,.08,1.49l-14.56,8.16a.83.83,0,0,0-.42.65L158.26,71a.83.83,0,0,1-1.39.53L144.6,60.2a.83.83,0,0,0-.75-.21l-16.28,3.68a.83.83,0,0,1-.94-1.16l7-15.16a.83.83,0,0,0,0-.78L125,32.22a.83.83,0,0,1,.82-1.25l16.58,2a.85.85,0,0,0,.72-.28l11-12.55A.84.84,0,0,1,155.62,20.49Z" fill="#ffcc01"/><path d="M154,23.63l-9.66,10.62a2.24,2.24,0,0,1-2,.69L128.19,32.5l14.4,4.59a2.21,2.21,0,0,0,2.47-.83Z" fill="#ffdb53"/><path d="M127.43,60.77l-.8,1.74a.83.83,0,0,0,.94,1.16L143.85,60a.83.83,0,0,1,.75.21l12.27,11.32a.83.83,0,0,0,1.39-.53l1.54-16.63a.83.83,0,0,1,.42-.65l14.56-8.16a.83.83,0,0,0-.08-1.49l-5.13-2.21C156.77,55.05,141.34,59.67,127.43,60.77Z" fill="#fcbd11"/><path d="M87.35.47l7.39,15a.83.83,0,0,0,.63.46l16.52,2.4a.84.84,0,0,1,.46,1.43L100.4,31.37a.82.82,0,0,0-.24.74L103,48.56a.83.83,0,0,1-1.21.88L87,41.67a.81.81,0,0,0-.77,0L71.44,49.44a.83.83,0,0,1-1.21-.88l2.82-16.45a.82.82,0,0,0-.24-.74l-12-11.65a.84.84,0,0,1,.46-1.43l16.52-2.4a.83.83,0,0,0,.63-.46l7.39-15A.82.82,0,0,1,87.35.47Z" fill="#ffcc01"/><path d="M86.6,3.92,80,16.68a2.22,2.22,0,0,1-1.76,1.18L64,19.16l15.1.71a2.21,2.21,0,0,0,2.17-1.44Z" fill="#ffdb53"/><path d="M70.55,46.67l-.32,1.89a.83.83,0,0,0,1.21.88l14.78-7.77a.81.81,0,0,1,.77,0l14.78,7.77a.83.83,0,0,0,1.21-.88l-2.82-16.45a.82.82,0,0,1,.24-.74l11.95-11.65a.84.84,0,0,0-.46-1.43l-5.53-.8C97.41,33.55,83.7,42,70.55,46.67Z" fill="#fcbd11"/><path d="M21,20.1l11,12.55a.85.85,0,0,0,.72.28l16.58-2a.83.83,0,0,1,.82,1.25L41.64,46.57a.83.83,0,0,0,0,.78l7,15.16a.83.83,0,0,1-.94,1.16L31.35,60a.84.84,0,0,0-.75.21L18.34,71.52a.83.83,0,0,1-1.4-.53L15.41,54.36a.83.83,0,0,0-.42-.65L.43,45.55A.83.83,0,0,1,.5,44.06l15.34-6.6a.83.83,0,0,0,.49-.6l3.26-16.37A.84.84,0,0,1,21,20.1Z" fill="#ffcc01"/><path d="M21.21,23.63l-3.06,14a2.21,2.21,0,0,1-1.39,1.59l-13.47,5L18.06,41a2.2,2.2,0,0,0,1.72-2Z" fill="#ffdb53"/><path d="M16.77,69.07,16.94,71a.83.83,0,0,0,1.4.53L30.6,60.2a.84.84,0,0,1,.75-.21l16.29,3.68a.83.83,0,0,0,.94-1.16l-7-15.16a.83.83,0,0,1,0-.78l8.53-14.35A.83.83,0,0,0,49.35,31l-5.55.65C39.31,49.45,28.26,61.17,16.77,69.07Z" fill="#fcbd11"/></svg>