<svg id="VeteranPlane" xmlns="http://www.w3.org/2000/svg" viewBox="0 0 289.75 300"><path d="M289.75,137.63a47.83,47.83,0,0,1-1.5,12.18H166q-3.84,11.1-4.22,10.31v45.49q0,16-7.64,58.46,13.75,2.3,19.49,3.82,11.85,3.06,18.73,6.88v10.7q-7.25,3.81-20.64,4.58-10.32.39-21.39,1.53a13.06,13.06,0,0,0-5.74,8.42s-1.77-6.64-5.35-8.42q-32.49,0-42-6.11v-10.7q6.5-3.06,38.22-10.7-7.67-48.9-7.65-58.85V160.51q-.78-3-3-10.7H1.26Q.93,146.5,0,137.72a3.26,3.26,0,0,1,2.46-3.51q18.31-4.61,62.23-13.45c.75-2,1.08-6.23.94-12.61s.58-11.07,2.1-14.13a130.09,130.09,0,0,1-16.42-2.68h5a20.05,20.05,0,0,1,5,.38c3.3,0,5.86-1.66,7.65-5h3.82L75,91a134.39,134.39,0,0,0,14.53-.75,121.55,121.55,0,0,0-15.3,2.66c1,1.55,1.66,5.62,1.92,12.24s.63,10.69,1.15,12.22q7.64-1.53,23.31-4.19c.77-2.3,1.14-6.89,1.14-13.77,0-6.11.64-10.43,1.91-13A128.39,128.39,0,0,1,87.24,83.7h5.35a19.54,19.54,0,0,1,5,.38q5,0,7.64-5H109A6.75,6.75,0,0,0,111,83.31a131.58,131.58,0,0,0,14.51-.76,121.61,121.61,0,0,0-15.29,2.68c.78.76,1.52,7.39,2.29,19.87a20.25,20.25,0,0,0,.77,4.58c2.3-.51,5.36-1.27,9.16-2.29,3.07-5.86,4.84-10.44,5.36-13.76V57.15S129.9,0,144.41,0s17,56.57,17,56.57.26,19,.77,37.06c0,2.3,4.2,13,4.2,13l9.94,3.05s.48-18.56,3.06-24.45a107.05,107.05,0,0,1-15.28-2.68c8.66,0,13.36.25,14.13.76q1.16-4.57,4.21-4.58a32.87,32.87,0,0,1,4.2,4.2q11.46.78,15.67,1.91-5.37,0-16.44,1.15c2,1.28,1.92,26,1.92,26l24.45,5.35s.44-20.57,3.06-24.46A119.19,119.19,0,0,1,200,90.2q12.6,0,14.51.75a6.89,6.89,0,0,1,4.2-4.19,25,25,0,0,1,3.83,3.82,79.56,79.56,0,0,1,15.66,1.9c-3.57,0-9,.38-16.43,1.15q3.45,2.7,2.3,26,27.27,5.53,63.11,14.62A3.44,3.44,0,0,1,289.75,137.63Z"/></svg>