<svg id="NormalPlane" xmlns="http://www.w3.org/2000/svg" viewBox="0 0 299.36 276.5"><path d="M299.36,181.85l-2.19,1.49-33.86-11.56-1.46.74-2.19.38-13.84-7.07q-1.45.38-5.46,1.86-6.56-7.83-12.75-7.83l-2.92,1.87a58.56,58.56,0,0,0-12.38-6q-3.27,0-3.27,1.86c-1.94,0-3.77-1.62-5.47-4.85-7.28-2.23-11-3.36-11.28-3.36a2.37,2.37,0,0,0-1.81.75l-1.84.38a106.12,106.12,0,0,0-16-7.08c-1,.5-2.32,1.12-4,1.86a33.85,33.85,0,0,1-2.92-4.11l-2.55,85q0,2.24,22.94,17.9c15.3,10.41,23.41,18.74,23.41,20.47V276.5L155.87,261,148.17,273l-7.59-11.8L88.13,276.5V263.83q0-3.72,21.67-19.74t22.39-18.27q-3.63-32.79-4.73-84.6l-.36,3a12.55,12.55,0,0,1-3.27-.38,8.93,8.93,0,0,1-3.29-.36c-1.94,0-4.61,1.06-8,3.16s-5.59,4.05-6.56,5.78h-2.9c0-.24-.62-.88-1.82-1.86-.73,0-3.88,1.11-9.48,3.35a58.31,58.31,0,0,1-4,4.84c-1.46-1.49-2.67-2.23-3.64-2.23q-7.66,0-12.38,8.19a7,7,0,0,1-2-.92,6.42,6.42,0,0,0-3.09-.93c-6.56,2.47-9.84,4.84-9.84,7.08H53.55l-2.2-2.24c-1.45.5-5,2-10.56,4.47-.24.74-1.33,2.11-3.28,4.09l-1.45-1.11c0-.75-.49-1.11-1.46-1.11Q24.4,177.36,1.47,185.2A46.72,46.72,0,0,1,0,178.49q0-9.31,3.64-12.29,10.2-8.2,31-21.25L66.29,125.2c-2.44-5-7.91-16.72-1.83-26.82H76.85c0,10.42-.13,17.64-.37,21.61l22.58-16.4S91.5,90.36,97.23,79h14.94a60.59,60.59,0,0,1-.37,15.27L127.1,82S124.11,0,146,0s19.29,82,19.29,82,9.1,7.08,14.21,10.07q0-3.73,2.91-14.17h13.48c3.19,8.6.12,17.64-2.56,23.11l23.69,15.65c0-4.72-2.56-15.41,0-21.25h13.83c4.61,10.47-2.3,24.1-2.55,25.34q0,3,28,19c7.53,4.23,18.69,10.92,33.88,19.38C298.75,163.86,299.36,181.85,299.36,181.85Z"/></svg>